<?xml version="1.0" encoding="UTF-8"?><svg id="Layer_2" xmlns="http://www.w3.org/2000/svg" viewBox="0 0 168.49 163.96"><defs><style>.cls-1,.cls-2{stroke-width:0px;}.cls-2{fill:#fff;}</style></defs><g id="Layer_1-2"><path class="cls-2" d="M0,0h168.49v163.96H0C0,109.31,0,54.65,0,0ZM84.22,157.56c17.73,0,35.47,0,53.2,0,1.17,0,2.35-.03,3.51-.16,6.9-.79,12.44-4.05,16.59-9.56,3.01-4,4.27-8.64,4.26-13.64,0-34.71,0-69.42,0-104.12,0-5.89-1.67-11.16-5.74-15.55-1.67-1.8-3.48-3.41-5.63-4.66-4.01-2.33-8.31-3.32-12.91-3.32-35.57.02-71.14.02-106.72,0-6.63,0-12.36,2.19-17.2,6.67-2.89,2.68-4.71,6.08-6.02,9.74-.81,2.27-.99,4.67-.99,7.09,0,34.55,0,69.1,0,103.65,0,3.35.4,6.59,1.88,9.68,1.46,3.06,3.22,5.82,5.8,8.1,4.73,4.17,10.21,6.11,16.46,6.1,17.84,0,35.68,0,53.52,0Z"/><path class="cls-1" d="M84.22,157.56c-17.84,0-35.68,0-53.52,0-6.24,0-11.73-1.94-16.46-6.1-2.58-2.27-4.34-5.04-5.8-8.1-1.48-3.09-1.88-6.33-1.88-9.68,0-34.55,0-69.1,0-103.65,0-2.42.18-4.82.99-7.09,1.31-3.66,3.13-7.06,6.02-9.74,4.84-4.48,10.58-6.67,17.2-6.67,35.57.03,71.14.02,106.72,0,4.6,0,8.9.99,12.91,3.32,2.15,1.25,3.96,2.85,5.63,4.66,4.07,4.39,5.74,9.66,5.74,15.55,0,34.71,0,69.42,0,104.12,0,5-1.26,9.64-4.26,13.64-4.14,5.51-9.69,8.76-16.59,9.56-1.16.13-2.34.16-3.51.16-17.73,0-35.47,0-53.2,0ZM18.2,41.76c.09,2.29.5,5.37,1.9,8.31,1.55,3.26,3.4,6.22,6.15,8.62,2.65,2.32,5.59,4.08,8.94,5.12,2.95.91,5.93,1.69,8.9,2.55,6.16,1.78,12.31,3.58,18.46,5.38,4.78,1.4,9.55,2.81,14.32,4.21.63.18,1.31.27,1.67-.32.25-.41.37-1.08.23-1.54-1.81-6.08-3.68-12.15-5.54-18.22-2.15-7.04-4.33-14.07-6.42-21.12-1.12-3.78-2.8-7.18-5.58-10.06-3.41-3.54-7.41-5.98-12.18-7.06-9-2.04-16.94.1-23.72,6.35-2.73,2.52-4.46,5.74-5.83,9.14-1,2.46-1.33,5.09-1.31,8.64ZM152.99,120.76c-.12-2.93-.77-6.46-2.54-9.8-2.18-4.15-5.18-7.44-9.13-9.9-2.7-1.68-5.72-2.51-8.75-3.37-8.11-2.3-16.2-4.7-24.29-7.07-4.75-1.39-9.49-2.79-14.25-4.14-.44-.13-1.07-.01-1.47.22-.51.31-.41.9-.24,1.45,1.73,5.63,3.46,11.27,5.18,16.91,2.28,7.47,4.59,14.93,6.8,22.42,1.11,3.75,2.71,7.16,5.43,10.05,3.3,3.52,7.2,5.98,11.85,7.16,8.8,2.23,16.67.3,23.57-5.53,2.64-2.23,4.43-5.16,5.9-8.24,1.41-2.94,1.94-6.13,1.93-10.15ZM40.17,145.34c6.62.02,11.41-1.55,15.78-4.45,2.45-1.62,4.35-3.83,6.1-6.15,1.38-1.84,2.3-3.95,3-6.15.92-2.91,1.85-5.81,2.75-8.72,1.99-6.48,3.97-12.95,5.93-19.44,1.25-4.13,2.46-8.27,3.69-12.4.17-.58.31-1.14-.2-1.63-.51-.48-1.07-.32-1.65-.15-2.81.82-5.62,1.64-8.43,2.46-6.18,1.81-12.36,3.62-18.54,5.42-4.34,1.27-8.67,2.61-13.04,3.77-3.74,1-7.13,2.64-10.13,5.05-2.56,2.06-4.64,4.62-6.05,7.54-3.75,7.76-3.67,15.49.88,22.99,1.56,2.57,3.48,4.79,5.89,6.65,4.55,3.5,9.69,5.12,14.03,5.2ZM126.56,16.73c-6.83.05-12.85,2.6-17.84,7.56-2.8,2.78-4.55,6.24-5.75,9.91-2.09,6.41-3.97,12.9-5.94,19.35-2.08,6.81-4.15,13.62-6.23,20.43-.18.57-.38,1.16.16,1.62.51.44,1.11.39,1.73.21,1.68-.5,3.37-.98,5.06-1.47,8.09-2.36,16.19-4.72,24.28-7.09,3.5-1.02,6.96-2.21,10.5-3.05,4.98-1.19,9.15-3.68,12.68-7.3,2.95-3.03,4.73-6.78,5.75-10.79,1-3.96.92-7.97-.42-11.94-1.38-4.08-3.31-7.75-6.57-10.66-1.7-1.51-3.46-2.89-5.49-3.94-3.68-1.9-7.56-2.81-11.91-2.84Z"/><path class="cls-2" d="M18.2,41.76c-.02-3.55.32-6.17,1.31-8.64,1.37-3.39,3.1-6.62,5.83-9.14,6.78-6.25,14.72-8.39,23.72-6.35,4.77,1.08,8.77,3.52,12.18,7.06,2.78,2.88,4.45,6.28,5.58,10.06,2.09,7.05,4.27,14.08,6.42,21.12,1.85,6.07,3.72,12.14,5.54,18.22.14.46.03,1.13-.23,1.54-.36.58-1.05.5-1.67.32-4.77-1.41-9.55-2.82-14.32-4.21-6.15-1.8-12.31-3.59-18.46-5.38-2.96-.86-5.95-1.64-8.9-2.55-3.35-1.04-6.28-2.8-8.94-5.12-2.75-2.41-4.6-5.36-6.15-8.62-1.4-2.94-1.81-6.02-1.9-8.31ZM49.42,30.29c-5.06-.13-9.05,1.35-12.3,4.45-8.11,7.72-5.61,21.27,4.74,25.55,2.64,1.09,5.47,1.71,8.23,2.52,6.74,1.98,13.47,3.96,20.22,5.9.4.12,1.06.11,1.29-.13.24-.25.23-.89.11-1.3-1.45-4.83-2.96-9.64-4.42-14.46-1.1-3.61-2.16-7.24-3.23-10.86-.59-2-1.44-3.82-2.78-5.48-3.2-3.98-7.36-5.91-11.84-6.19Z"/><path class="cls-2" d="M152.99,120.76c0,4.03-.53,7.21-1.93,10.15-1.47,3.08-3.26,6-5.9,8.24-6.9,5.83-14.77,7.76-23.57,5.53-4.66-1.18-8.55-3.64-11.85-7.16-2.72-2.9-4.33-6.3-5.43-10.05-2.21-7.49-4.52-14.95-6.8-22.42-1.72-5.64-3.45-11.27-5.18-16.91-.17-.55-.27-1.15.24-1.45.4-.24,1.02-.35,1.47-.22,4.76,1.35,9.5,2.76,14.25,4.14,8.09,2.36,16.18,4.77,24.29,7.07,3.03.86,6.05,1.69,8.75,3.37,3.95,2.46,6.95,5.76,9.13,9.9,1.76,3.35,2.42,6.87,2.54,9.8ZM136.84,114.05c-.09-4.48-1.78-8.54-5.57-11.55-1.31-1.05-2.77-2.08-4.34-2.61-4.1-1.39-8.29-2.52-12.45-3.73-4.67-1.36-9.35-2.7-14.03-4.04-.69-.2-1.37-.5-2.07-.58-.4-.05-.95.16-1.23.45-.17.18,0,.73.08,1.1.06.27.28.5.36.77,1.97,6.37,3.93,12.73,5.89,19.1.55,1.78,1.08,3.56,1.59,5.35.81,2.85,2.16,5.32,4.44,7.31,1.92,1.67,3.98,2.99,6.43,3.72,6.44,1.89,13.03-.01,17.5-5.3,2.34-2.76,3.35-6.07,3.39-9.98Z"/><path class="cls-2" d="M40.17,145.34c-4.33-.09-9.47-1.7-14.03-5.2-2.41-1.85-4.33-4.08-5.89-6.65-4.55-7.5-4.63-15.23-.88-22.99,1.41-2.92,3.49-5.48,6.05-7.54,3-2.41,6.39-4.06,10.13-5.05,4.37-1.16,8.69-2.51,13.04-3.77,6.18-1.81,12.36-3.62,18.54-5.42,2.81-.82,5.62-1.63,8.43-2.46.58-.17,1.14-.34,1.65.15.52.49.37,1.05.2,1.63-1.23,4.13-2.44,8.27-3.69,12.4-1.96,6.48-3.94,12.96-5.93,19.44-.89,2.91-1.82,5.82-2.75,8.72-.7,2.2-1.61,4.31-3,6.15-1.74,2.32-3.64,4.52-6.1,6.15-4.37,2.89-9.16,4.46-15.78,4.45ZM48.84,130.24c.5-.04,1.33-.05,2.14-.2,6.45-1.18,10.93-4.76,13.05-11.02,1.33-3.94,2.52-7.94,3.73-11.92,1.42-4.66,2.82-9.32,4.19-13.99.11-.36.08-.93-.14-1.16-.21-.22-.79-.26-1.15-.16-5.4,1.52-10.79,3.08-16.19,4.64-3.45,1-6.88,2.08-10.36,2.98-2.63.68-4.91,1.99-6.83,3.79-7.27,6.82-5.89,18.24.89,23.38,3.1,2.36,6.48,3.6,10.66,3.67Z"/><path class="cls-2" d="M126.56,16.73c4.35.03,8.23.94,11.91,2.84,2.04,1.05,3.8,2.42,5.49,3.94,3.26,2.91,5.2,6.57,6.57,10.66,1.34,3.97,1.42,7.98.42,11.94-1.02,4.02-2.8,7.77-5.75,10.79-3.52,3.62-7.69,6.11-12.68,7.3-3.54.84-7,2.03-10.5,3.05-8.09,2.37-16.19,4.73-24.28,7.09-1.69.49-3.38.97-5.06,1.47-.62.19-1.22.23-1.73-.21-.55-.47-.34-1.05-.16-1.62,2.08-6.81,4.16-13.62,6.23-20.43,1.97-6.45,3.84-12.94,5.94-19.35,1.2-3.68,2.95-7.14,5.75-9.91,4.99-4.96,11.01-7.51,17.84-7.56ZM136.54,45.48c-.13-3.24-1.19-6.73-3.93-9.61-1.85-1.94-3.89-3.51-6.44-4.43-6.15-2.24-12.89-.85-17.72,4.05-1.61,1.64-2.69,3.63-3.39,5.82-.69,2.17-1.41,4.33-2.07,6.5-2.01,6.58-4.02,13.16-5.99,19.75-.11.38-.12,1.03.11,1.22.29.24.9.29,1.31.17,3.87-1.09,7.72-2.22,11.58-3.35,4.95-1.44,9.89-2.95,14.87-4.31,3.49-.96,6.24-2.96,8.46-5.68,2.23-2.73,3.2-5.97,3.22-10.12Z"/><path class="cls-1" d="M49.42,30.29c4.49.29,8.64,2.21,11.84,6.19,1.33,1.66,2.19,3.48,2.78,5.48,1.07,3.62,2.13,7.25,3.23,10.86,1.47,4.82,2.97,9.64,4.42,14.46.12.41.13,1.05-.11,1.3-.23.24-.88.25-1.29.13-6.75-1.95-13.49-3.92-20.22-5.9-2.75-.81-5.59-1.43-8.23-2.52-10.34-4.29-12.85-17.83-4.74-25.55,3.26-3.1,7.24-4.58,12.3-4.45Z"/><path class="cls-1" d="M136.84,114.05c-.05,3.91-1.06,7.22-3.39,9.98-4.47,5.29-11.06,7.19-17.5,5.3-2.46-.72-4.51-2.05-6.43-3.72-2.28-1.98-3.63-4.46-4.44-7.31-.51-1.79-1.04-3.57-1.59-5.35-1.96-6.37-3.92-12.74-5.89-19.1-.08-.27-.3-.5-.36-.77-.08-.37-.25-.93-.08-1.1.28-.29.83-.49,1.23-.45.7.08,1.38.38,2.07.58,4.68,1.35,9.36,2.68,14.03,4.04,4.16,1.21,8.35,2.34,12.45,3.73,1.56.53,3.02,1.56,4.34,2.61,3.78,3.01,5.47,7.07,5.57,11.55Z"/><path class="cls-1" d="M48.84,130.24c-4.19-.07-7.57-1.32-10.66-3.67-6.77-5.15-8.15-16.56-.89-23.38,1.92-1.8,4.2-3.11,6.83-3.79,3.48-.9,6.9-1.99,10.36-2.98,5.39-1.56,10.79-3.11,16.19-4.64.36-.1.93-.06,1.15.16.22.23.25.8.14,1.16-1.37,4.67-2.77,9.34-4.19,13.99-1.22,3.98-2.4,7.98-3.73,11.92-2.12,6.27-6.6,9.84-13.05,11.02-.81.15-1.64.16-2.14.2Z"/><path class="cls-1" d="M136.54,45.48c-.02,4.15-.99,7.39-3.22,10.12-2.22,2.72-4.98,4.73-8.46,5.68-4.98,1.36-9.91,2.87-14.87,4.31-3.86,1.12-7.71,2.26-11.58,3.35-.41.11-1.02.07-1.31-.17-.23-.19-.22-.84-.11-1.22,1.98-6.59,3.98-13.17,5.99-19.75.67-2.18,1.38-4.34,2.07-6.5.7-2.19,1.78-4.18,3.39-5.82,4.83-4.9,11.57-6.29,17.72-4.05,2.55.93,4.59,2.49,6.44,4.43,2.74,2.89,3.8,6.37,3.93,9.61Z"/></g></svg>