<?xml version="1.0" encoding="UTF-8"?><svg id="a" xmlns="http://www.w3.org/2000/svg" width="830.29" height="518.31" viewBox="0 0 830.29 518.31"><g id="b"><g><path d="M276.53,81.34c-2.29-1.46-1.69-4.01-2.11-6.08-2.04-10.04-6.6-18.86-12.85-26.83-9.89-12.61-22.73-21.52-36.8-28.81-7.79-4.04-15.99-7.13-24.28-9.89-4.6-1.54-9.32-2.96-14.07-3.88-8.45-1.63-16.92-3.23-25.53-4.09-9.31-.93-18.61-1.28-27.95-1.2-5.43,.05-10.83,.64-16.25,1.04-4.5,.33-8.98,.9-13.41,1.64-5.38,.9-10.74,1.98-16.05,3.34-7.34,1.87-14.58,4.04-21.64,6.76-9.57,3.68-18.7,8.22-27.31,13.83-8.46,5.51-16.05,11.99-22.49,19.75-6.35,7.67-11.18,16.13-13.49,25.96-1.87,7.96-2.14,15.76-.49,23.86,2.42,11.91,8.23,21.78,16.1,30.76,8.02,9.15,17.73,16.06,28.18,22.08,5.98,3.45,12.26,6.29,18.65,8.82,7.33,2.91,14.91,5.1,22.52,7.16,3.92,1.06,7.91,1.92,11.91,2.59,4.45,.75,8.95,1.15,13.42,1.79,3.45,.49,6.9,.88,10.4,.91,1.33,0,2.76,.45,3.47,1.9" fill="none" stroke="#000" stroke-linecap="round" stroke-linejoin="round"/><path d="M703.84,172.74c.86-1.53,2.34-1.88,3.9-1.94,7.08-.26,14.03-1.46,21.02-2.52,9.37-1.43,18.49-3.76,27.48-6.63,8.21-2.63,16.19-5.87,23.85-9.9,7.99-4.2,15.58-8.95,22.51-14.75,9.8-8.2,17.83-17.75,22.73-29.68,3.62-8.82,5.12-17.92,3.96-27.51-1.41-11.67-6.17-21.78-13.26-30.97-7.95-10.32-17.94-18.29-29.05-24.86-8.14-4.82-16.75-8.68-25.71-11.84-5.03-1.77-10.08-3.45-15.21-4.81-4.41-1.18-8.87-2.2-13.39-2.98-4.47-.77-8.94-1.53-13.44-2.1-5.19-.66-10.39-1.11-15.6-1.48-5.62-.4-11.26-.23-16.89-.21-5.43,.01-10.83,.62-16.25,1.05-6.78,.53-13.45,1.76-20.13,2.89-4.24,.72-8.41,1.86-12.56,3-7.36,2.03-14.61,4.38-21.67,7.32-5.56,2.31-10.98,4.89-16.23,7.84-9.47,5.32-18.21,11.65-25.76,19.5-6.68,6.94-12.08,14.8-15.56,23.82-1.52,3.95-2.89,8.01-3.08,12.33-.06,1.32-.89,2.17-1.74,3.03" fill="none" stroke="#000" stroke-linecap="round" stroke-linejoin="round"/><path d="M553.75,427.44c.9-.74,1.61-1.62,1.73-2.82,.52-5.25,2.24-10.13,4.3-14.96,5-11.74,13.18-20.98,22.82-28.95,10.25-8.47,21.82-14.8,34.15-19.82,6.41-2.61,12.91-4.96,19.55-6.76,7.87-2.14,15.87-3.91,24.01-4.9,5.55-.68,11.06-1.73,16.68-1.74,.72,0,1.65-.19,2.13-.66,1.54-1.49,3.39-1.27,5.24-1.26,5.92,.01,11.84,0,17.76,.02,.8,0,1.49-.09,2.26,.77,.69,.77,2.05,1.17,3.37,1.2,7.08,.18,14.03,1.42,21.02,2.48,9.37,1.43,18.49,3.76,27.48,6.63,8.21,2.63,16.19,5.87,23.85,9.9,7.99,4.2,15.58,8.95,22.51,14.75,9.8,8.2,17.83,17.75,22.73,29.68,3.62,8.82,5.12,17.92,3.96,27.51-1.41,11.67-6.17,21.78-13.26,30.97-7.95,10.32-17.94,18.29-29.05,24.86-8.14,4.82-16.75,8.68-25.71,11.84-5.03,1.77-10.08,3.45-15.21,4.81-4.41,1.18-8.87,2.2-13.39,2.98-4.47,.77-8.94,1.53-13.44,2.1-5.19,.66-10.39,1.11-15.6,1.48-5.77,.41-11.55,.24-17.33,.21-5.29-.02-10.54-.63-15.81-1.04-6.78-.54-13.45-1.75-20.13-2.9-4.46-.77-8.84-2.03-13.22-3.21-7.16-1.92-14.17-4.28-21.02-7.11-5.56-2.3-10.98-4.89-16.23-7.83-9.38-5.27-18.03-11.55-25.55-19.28-6-6.17-10.98-13.12-14.49-21.01-2.18-4.89-3.98-9.94-4.36-15.36-.09-1.32-.9-2.17-1.74-3.03" fill="none" stroke="#000" stroke-linecap="round" stroke-linejoin="round"/><path d="M276.53,427.44c-.9-.74-1.61-1.62-1.73-2.82-.52-5.25-2.24-10.13-4.3-14.96-5-11.74-13.18-20.98-22.82-28.95-10.25-8.47-21.81-14.82-34.16-19.81-6.33-2.55-12.75-4.79-19.3-6.64-6.97-1.96-14.05-3.5-21.22-4.58-6.54-.98-13.07-2.12-19.71-2.16-.91,0-1.74-.37-2.35-.91-1.25-1.08-2.66-1.07-4.14-1.06-6.21,.03-12.42,0-18.63,.02-.8,0-1.49-.09-2.26,.77-.69,.77-2.05,1.17-3.37,1.2-7.08,.18-14.03,1.42-21.02,2.48-9.37,1.43-18.49,3.76-27.48,6.63-8.21,2.63-16.19,5.87-23.85,9.9-7.99,4.2-15.58,8.95-22.51,14.75-9.8,8.2-17.83,17.75-22.73,29.68-3.62,8.82-5.12,17.92-3.96,27.51,1.41,11.67,6.17,21.78,13.26,30.97,7.95,10.32,17.94,18.29,29.05,24.86,8.14,4.82,16.75,8.68,25.71,11.84,5.03,1.77,10.08,3.45,15.21,4.81,4.41,1.18,8.87,2.2,13.39,2.98,4.47,.77,8.94,1.53,13.44,2.1,5.19,.66,10.39,1.11,15.6,1.48,5.77,.41,11.55,.24,17.33,.21,5.29-.02,10.54-.63,15.81-1.04,6.78-.54,13.45-1.75,20.13-2.9,4.46-.77,8.84-2.03,13.22-3.21,7.16-1.92,14.17-4.28,21.02-7.11,5.56-2.3,10.99-4.89,16.23-7.83,9.38-5.27,18.04-11.54,25.55-19.28,6-6.18,10.98-13.12,14.49-21.01,2.18-4.89,3.98-9.94,4.36-15.36,.09-1.32,.9-2.17,1.74-3.03" fill="none" stroke="#000" stroke-linecap="round" stroke-linejoin="round"/><path d="M276.96,436.97c1.48,1.26,1.52,2.95,1.82,4.75,.8,4.78,2.23,9.45,4.27,13.86,4.47,9.71,10.93,18.01,18.85,25.1,9.97,8.94,21.28,15.9,33.55,21.23,8.41,3.65,17.02,6.75,25.96,8.97,5.82,1.44,11.64,2.83,17.56,3.85,14.27,2.45,28.64,3.4,43.1,2.99,4.84-.14,9.67-.77,14.51-1.02,4.37-.23,8.68-.96,12.98-1.62,5.17-.8,10.31-1.86,15.4-3.12,5.02-1.25,10.03-2.57,14.92-4.21,7.03-2.36,13.95-5.09,20.58-8.43,7.88-3.97,15.39-8.53,22.35-14.01,8.54-6.73,15.86-14.5,21.4-23.87,3.57-6.05,5.94-12.62,7.31-19.5,.36-1.81,.16-3.68,1.81-4.97" fill="none" stroke="#000" stroke-linecap="round" stroke-linejoin="round"/><path d="M553.32,81.34c-1.48-1.26-1.52-2.95-1.82-4.75-.8-4.78-2.23-9.45-4.27-13.86-4.47-9.71-10.9-18.05-18.85-25.09-11.14-9.86-23.74-17.36-37.62-22.87-7.27-2.88-14.6-5.45-22.13-7.47-5.7-1.53-11.49-2.73-17.32-3.72-14.27-2.42-28.64-3.39-43.1-2.98-4.84,.14-9.67,.77-14.51,1.02-4.37,.23-8.68,.99-12.98,1.62-5.32,.77-10.59,1.94-15.81,3.22-5.12,1.25-10.18,2.77-15.19,4.46-7.27,2.45-14.37,5.28-21.19,8.75-8.08,4.1-15.73,8.92-22.77,14.68-11.94,9.77-21.04,21.56-25.68,36.42-.75,2.39-1.53,4.92-1.4,7.55,.07,1.32-.87,2.17-1.72,3.03" fill="none" stroke="#000" stroke-linecap="round" stroke-linejoin="round"/><path d="M276.53,254.6c-2.34-1.54-1.65-4.15-2.12-6.29-2.02-9.28-6.07-17.59-11.76-25.1-8.99-11.87-20.5-20.69-33.52-27.8-9.1-4.97-18.58-8.87-28.4-12.08-5.64-1.84-11.36-3.46-17.14-4.65-6.71-1.38-13.48-2.57-20.33-3.19-3.1-.28-6.18-.86-9.32-.81-1.09,.02-2.21-.18-3.01-.89-1.31-1.16-2.81-1.07-4.36-1.06-6.14,.02-12.27,0-18.41,.02-.8,0-1.53-.17-2.26,.79-.61,.8-2,1.17-3.16,1.13-5.19-.21-10.25,.94-15.37,1.4-4.07,.36-8.1,1.31-12.13,2.11-8.74,1.74-17.38,3.97-25.75,7-7.53,2.72-14.84,6.02-21.93,9.83-11.01,5.92-20.95,13.19-29.41,22.38-7.75,8.41-13.46,18.1-16.18,29.24-1.86,7.6-2,15.38-.34,23.16,2.35,11.01,7.53,20.5,14.75,29.03,8.29,9.8,18.37,17.32,29.46,23.6,8.71,4.93,17.9,8.82,27.32,12.04,8.38,2.86,17.04,4.97,25.76,6.48,7.72,1.33,15.49,2.6,23.37,2.73,1.57,.03,3.23,.24,4.12,1.92" fill="none" stroke="#000" stroke-linecap="round" stroke-linejoin="round"/><path d="M553.75,254.6c2.29-1.46,1.69-4.01,2.11-6.08,1.88-9.29,5.96-17.58,11.57-25.09,8.83-11.83,20.3-20.57,33.09-27.78,9.86-5.56,20.32-9.67,31.02-13.08,7.06-2.25,14.37-3.73,21.64-5.23,4.41-.91,8.94-1.18,13.41-1.81,3.38-.48,6.75-.94,10.18-.88,.91,.02,1.9-.22,2.58-.86,1.28-1.2,2.8-1.08,4.35-1.07,6.14,.02,12.27,0,18.41,.02,.8,0,1.53-.17,2.26,.79,.61,.8,2,1.17,3.16,1.13,5.19-.21,10.25,.94,15.37,1.4,4.07,.36,8.1,1.31,12.13,2.11,8.74,1.74,17.38,3.97,25.75,7,7.53,2.72,14.84,6.02,21.93,9.83,11.01,5.92,20.95,13.19,29.41,22.38,7.75,8.41,13.46,18.1,16.18,29.24,1.86,7.6,2,15.38,.34,23.16-2.35,11.01-7.53,20.5-14.75,29.03-8.29,9.8-18.37,17.32-29.46,23.6-8.71,4.93-17.9,8.82-27.32,12.04-8.38,2.86-17.04,4.97-25.76,6.48-7.72,1.33-15.49,2.6-23.37,2.73-1.57,.03-3.23,.24-4.12,1.92" fill="none" stroke="#000" stroke-linecap="round" stroke-linejoin="round"/><path d="M680.67,172.74c-1.11-1.39-2.59-1.92-4.33-1.96-6.93-.17-13.75-1.32-20.57-2.38-6.5-1.01-12.9-2.55-19.26-4.16-4.62-1.17-9.2-2.6-13.64-4.33-7.4-2.89-14.7-6.04-21.7-9.88-13.88-7.6-25.99-17.25-35.24-30.17-3.98-5.57-7.01-11.75-8.88-18.39-.69-2.46-1.59-4.93-1.58-7.57,0-1.31-.75-2.25-1.72-3.03" fill="none" stroke="#000" stroke-linecap="round" stroke-linejoin="round"/><path d="M276.53,263.7c-2.34,1.54-1.65,4.15-2.12,6.29-2.02,9.28-6.07,17.59-11.76,25.1-8.99,11.87-20.5,20.69-33.52,27.8-9.1,4.97-18.58,8.87-28.4,12.08-5.64,1.84-11.36,3.46-17.14,4.65-6.71,1.38-13.48,2.57-20.33,3.19-3.1,.28-6.18,.81-9.32,.83-1.68,0-3.24,.49-4.33,1.93" fill="none" stroke="#000" stroke-linecap="round" stroke-linejoin="round"/><path d="M553.75,263.7c2.29,1.46,1.69,4.01,2.11,6.08,1.88,9.29,5.96,17.58,11.57,25.09,8.83,11.83,20.3,20.57,33.09,27.78,9.86,5.56,20.32,9.67,31.02,13.08,7.06,2.25,14.37,3.73,21.64,5.23,4.41,.91,8.94,1.18,13.41,1.81,3.38,.48,6.75,.88,10.18,.9,1.49,0,2.93,.59,3.9,1.9" fill="none" stroke="#000" stroke-linecap="round" stroke-linejoin="round"/><path d="M553.32,263.7c-2.29,1.46-1.69,4.01-2.11,6.08-1.88,9.29-5.96,17.58-11.57,25.09-8.83,11.83-20.3,20.57-33.09,27.78-9.86,5.56-20.32,9.67-31.02,13.08-7.06,2.25-14.37,3.73-21.64,5.23-4.41,.91-8.94,1.18-13.41,1.81-3.38,.48-6.76,.85-10.18,.92-1.36,.03-2.96,.28-3.68,1.89" fill="none" stroke="#000" stroke-linecap="round" stroke-linejoin="round"/><path d="M276.96,263.7c2.29,1.46,1.69,4.01,2.11,6.08,1.88,9.29,5.96,17.58,11.57,25.09,8.83,11.83,20.3,20.57,33.09,27.78,9.86,5.56,20.32,9.67,31.02,13.08,7.06,2.25,14.37,3.73,21.64,5.23,4.41,.91,8.94,1.18,13.41,1.81,3.38,.48,6.76,.85,10.18,.92,1.36,.03,2.96,.28,3.68,1.89" fill="none" stroke="#000" stroke-linecap="round" stroke-linejoin="round"/><path d="M553.32,90.87c-2.23,1.39-1.71,3.86-2.1,5.86-1.18,5.96-3.26,11.61-6.18,16.85-6.91,12.4-16.8,22.03-28.51,29.96-5.57,3.77-11.32,7.21-17.38,10.09-8.58,4.08-17.44,7.48-26.62,10-6.85,1.88-13.74,3.5-20.77,4.65-5.69,.93-11.4,1.62-17.12,2.33-1.39,.17-2.75,.06-4.12,.18-1.56,.13-3.04,.42-3.9,1.95" fill="none" stroke="#000" stroke-linecap="round" stroke-linejoin="round"/><path d="M276.96,90.87c2.23,1.39,1.71,3.86,2.1,5.86,1.18,5.96,3.26,11.61,6.18,16.85,6.91,12.4,16.8,22.03,28.51,29.96,5.57,3.77,11.32,7.21,17.38,10.09,8.58,4.08,17.44,7.48,26.62,10,6.85,1.88,13.74,3.5,20.77,4.65,5.69,.93,11.4,1.62,17.12,2.33,1.39,.17,2.75,.06,4.12,.18,1.56,.13,3.04,.42,3.9,1.95" fill="none" stroke="#000" stroke-linecap="round" stroke-linejoin="round"/><path d="M553.32,254.6c-2.29-1.46-1.69-4.01-2.11-6.08-1.88-9.29-5.96-17.58-11.57-25.09-8.83-11.83-20.3-20.57-33.09-27.78-9.86-5.56-20.32-9.67-31.02-13.08-7.06-2.25-14.37-3.73-21.64-5.23-4.41-.91-8.94-1.18-13.41-1.81-3.38-.48-6.75-.91-10.18-.9-.94,0-2.2-.25-2.75-.88-1.06-1.21-2.28-1.02-3.53-1.02-6.21,0-12.42-.01-18.63,0-.8,0-1.51-.13-2.26,.78-.68,.84-2.12,1.12-3.37,1.16-7.15,.22-14.18,1.37-21.23,2.54-7.56,1.26-14.95,3.09-22.32,5.17-10.63,3-20.77,7.07-30.51,12.22-12.05,6.37-22.9,14.32-31.81,24.71-5.11,5.96-9.31,12.57-12.1,19.93-1.5,3.95-2.92,8-3.09,12.32-.05,1.32-.89,2.17-1.74,3.03" fill="none" stroke="#000" stroke-linecap="round" stroke-linejoin="round"/><path d="M276.96,427.44c2.23-1.39,1.7-3.86,2.11-5.86,1.93-9.45,6-17.91,11.78-25.52,9.06-11.93,20.68-20.83,33.75-27.97,9.6-5.25,19.7-9.28,30.11-12.54,7.25-2.27,14.63-4.09,22.1-5.34,7.73-1.29,15.49-2.68,23.38-2.67,.99,0,2.05-.39,2.53-.94,1.06-1.22,2.28-1.01,3.54-1.02,6.21,0,12.42-.01,18.63,0,.8,0,1.52-.14,2.27,.77,.54,.65,1.77,1.18,2.93,1.17,7.89,0,15.65,1.39,23.37,2.69,5.33,.9,10.6,2.32,15.86,3.66,5.94,1.51,11.8,3.27,17.46,5.45,8.4,3.24,16.62,7.01,24.3,11.8,9.93,6.19,18.98,13.4,26.44,22.51,5.68,6.94,9.95,14.62,12.5,23.2,.73,2.45,1.61,4.93,1.57,7.57-.02,1.32,.88,2.17,1.72,3.03" fill="none" stroke="#000" stroke-linecap="round" stroke-linejoin="round"/><path d="M276.53,90.87c-.9,.74-1.61,1.62-1.73,2.82-.52,5.25-2.25,10.12-4.3,14.96-4.99,11.75-13.18,20.98-22.82,28.95-10.25,8.47-21.81,14.82-34.16,19.81-6.33,2.55-12.75,4.79-19.3,6.64-6.97,1.96-14.05,3.5-21.22,4.58-6.54,.98-13.07,2.08-19.71,2.2-1.46,.03-2.75,.71-3.68,1.92" fill="none" stroke="#000" stroke-linecap="round" stroke-linejoin="round"/></g></g><g id="c"><g><path d="M291.98,100.85c-2.03-1.3-1.5-3.56-1.87-5.4-1.81-8.92-5.86-16.75-11.42-23.83-8.78-11.2-20.18-19.11-32.68-25.59-6.92-3.58-14.2-6.33-21.56-8.78-4.09-1.36-8.27-2.63-12.5-3.45-7.51-1.45-15.02-2.87-22.67-3.63-8.27-.82-16.53-1.14-24.82-1.06-4.83,.04-9.62,.57-14.43,.92-4,.29-7.98,.8-11.91,1.46-4.78,.8-9.54,1.76-14.26,2.96-6.52,1.66-12.95,3.59-19.22,6.01-8.5,3.27-16.61,7.3-24.25,12.28-7.51,4.9-14.26,10.64-19.97,17.54-5.64,6.81-9.93,14.32-11.98,23.06-1.66,7.07-1.9,14-.44,21.19,2.15,10.57,7.31,19.34,14.3,27.32,7.12,8.13,15.75,14.26,25.02,19.61,5.31,3.06,10.89,5.58,16.56,7.84,6.51,2.58,13.24,4.53,20,6.36,3.48,.94,7.02,1.7,10.58,2.3,3.95,.67,7.95,1.02,11.92,1.59,3.07,.43,6.13,.78,9.23,.8,1.18,0,2.45,.4,3.08,1.68" fill="none" stroke="#000" stroke-linecap="round" stroke-linejoin="round"/><path d="M671.46,182.02c.77-1.35,2.08-1.67,3.46-1.72,6.29-.23,12.46-1.29,18.67-2.24,8.32-1.27,16.42-3.34,24.4-5.89,7.29-2.33,14.38-5.21,21.18-8.79,7.09-3.73,13.84-7.95,19.99-13.1,8.7-7.28,15.84-15.76,20.18-26.36,3.21-7.84,4.55-15.92,3.52-24.43-1.25-10.36-5.48-19.34-11.77-27.5-7.06-9.16-15.93-16.24-25.8-22.07-7.23-4.28-14.87-7.71-22.83-10.51-4.47-1.57-8.95-3.06-13.51-4.28-3.91-1.04-7.88-1.95-11.89-2.64-3.97-.68-7.94-1.36-11.94-1.87-4.61-.59-9.23-.98-13.85-1.31-4.99-.36-10-.2-15-.19-4.83,0-9.62,.55-14.43,.93-6.02,.47-11.94,1.57-17.88,2.57-3.76,.64-7.47,1.65-11.16,2.66-6.54,1.8-12.98,3.89-19.25,6.5-4.94,2.06-9.76,4.34-14.41,6.96-8.41,4.73-16.17,10.35-22.88,17.31-5.93,6.16-10.73,13.15-13.82,21.16-1.35,3.5-2.57,7.11-2.74,10.95-.05,1.18-.79,1.93-1.54,2.69" fill="none" stroke="#000" stroke-linecap="round" stroke-linejoin="round"/><path d="M538.17,408.21c.8-.66,1.43-1.44,1.53-2.5,.46-4.66,1.99-8.99,3.82-13.28,4.44-10.43,11.7-18.64,20.27-25.71,9.11-7.52,19.38-13.14,30.33-17.6,5.69-2.32,11.47-4.4,17.36-6,6.99-1.9,14.09-3.47,21.32-4.35,4.93-.6,9.82-1.54,14.81-1.55,.64,0,1.46-.17,1.89-.59,1.37-1.32,3.01-1.13,4.65-1.12,5.26,0,10.51,0,15.77,.01,.71,0,1.33-.08,2.01,.68,.61,.69,1.82,1.04,2.99,1.07,6.29,.16,12.46,1.26,18.67,2.2,8.32,1.27,16.42,3.34,24.4,5.89,7.29,2.33,14.38,5.21,21.18,8.79,7.09,3.73,13.84,7.95,19.99,13.1,8.7,7.28,15.84,15.76,20.18,26.36,3.21,7.84,4.55,15.92,3.52,24.43-1.26,10.36-5.48,19.34-11.77,27.5-7.06,9.16-15.93,16.24-25.8,22.07-7.23,4.28-14.87,7.71-22.83,10.51-4.47,1.57-8.95,3.06-13.51,4.28-3.91,1.04-7.88,1.95-11.89,2.64-3.97,.68-7.94,1.36-11.94,1.87-4.61,.59-9.23,.98-13.85,1.31-5.12,.36-10.26,.21-15.39,.19-4.7-.02-9.36-.56-14.04-.93-6.02-.48-11.95-1.55-17.88-2.57-3.96-.68-7.85-1.81-11.74-2.85-6.36-1.7-12.58-3.8-18.67-6.31-4.94-2.04-9.75-4.34-14.41-6.96-8.33-4.68-16.01-10.26-22.69-17.12-5.33-5.48-9.75-11.65-12.87-18.65-1.93-4.34-3.53-8.83-3.87-13.64-.08-1.17-.8-1.93-1.55-2.69" fill="none" stroke="#000" stroke-linecap="round" stroke-linejoin="round"/><path d="M291.98,408.21c-.8-.66-1.43-1.44-1.53-2.5-.46-4.66-1.99-8.99-3.82-13.28-4.44-10.43-11.7-18.64-20.27-25.71-9.11-7.52-19.37-13.16-30.33-17.59-5.62-2.27-11.32-4.25-17.14-5.89-6.19-1.74-12.48-3.11-18.84-4.07-5.81-.87-11.6-1.88-17.5-1.92-.81,0-1.55-.33-2.09-.8-1.11-.96-2.36-.95-3.68-.94-5.51,.02-11.03,0-16.54,.02-.71,0-1.33-.08-2.01,.68-.61,.69-1.82,1.04-2.99,1.07-6.29,.16-12.46,1.26-18.67,2.2-8.32,1.27-16.42,3.34-24.4,5.89-7.29,2.33-14.38,5.21-21.18,8.79-7.09,3.73-13.84,7.95-19.99,13.1-8.7,7.28-15.84,15.76-20.18,26.36-3.21,7.84-4.55,15.92-3.52,24.43,1.26,10.36,5.48,19.34,11.77,27.5,7.06,9.16,15.93,16.24,25.8,22.07,7.23,4.28,14.87,7.71,22.83,10.51,4.47,1.57,8.95,3.06,13.51,4.28,3.91,1.04,7.88,1.95,11.89,2.64,3.97,.68,7.94,1.36,11.94,1.87,4.61,.59,9.23,.98,13.85,1.31,5.12,.36,10.26,.21,15.39,.19,4.7-.02,9.36-.56,14.04-.93,6.02-.48,11.95-1.55,17.88-2.57,3.96-.68,7.85-1.81,11.74-2.85,6.36-1.7,12.58-3.8,18.67-6.31,4.94-2.04,9.76-4.34,14.41-6.96,8.33-4.68,16.02-10.25,22.69-17.12,5.33-5.48,9.75-11.65,12.87-18.66,1.93-4.34,3.53-8.83,3.87-13.64,.08-1.17,.8-1.93,1.55-2.69" fill="none" stroke="#000" stroke-linecap="round" stroke-linejoin="round"/><path d="M292.36,416.67c1.31,1.12,1.35,2.62,1.62,4.22,.71,4.25,1.98,8.39,3.79,12.31,3.97,8.62,9.71,15.99,16.74,22.29,8.86,7.94,18.9,14.12,29.8,18.85,7.47,3.24,15.12,6,23.06,7.96,5.17,1.28,10.34,2.51,15.59,3.42,12.67,2.18,25.44,3.02,38.28,2.65,4.3-.12,8.59-.69,12.89-.91,3.88-.2,7.71-.85,11.53-1.44,4.59-.71,9.15-1.65,13.68-2.77,4.46-1.11,8.9-2.28,13.25-3.74,6.24-2.1,12.39-4.52,18.27-7.48,6.99-3.52,13.67-7.57,19.85-12.45,7.58-5.98,14.09-12.88,19-21.2,3.17-5.37,5.27-11.21,6.49-17.31,.32-1.61,.15-3.27,1.61-4.41" fill="none" stroke="#000" stroke-linecap="round" stroke-linejoin="round"/><path d="M537.79,100.85c-1.31-1.12-1.35-2.62-1.62-4.22-.71-4.25-1.98-8.39-3.79-12.31-3.97-8.62-9.68-16.03-16.74-22.29-9.89-8.76-21.08-15.42-33.41-20.31-6.45-2.56-12.97-4.84-19.65-6.64-5.07-1.36-10.2-2.43-15.38-3.3-12.67-2.15-25.44-3.01-38.28-2.65-4.3,.12-8.59,.69-12.89,.91-3.88,.2-7.7,.88-11.53,1.43-4.72,.69-9.4,1.73-14.04,2.86-4.55,1.11-9.04,2.46-13.49,3.96-6.46,2.17-12.76,4.69-18.82,7.77-7.18,3.64-13.97,7.93-20.22,13.04-10.6,8.68-18.69,19.15-22.81,32.34-.66,2.12-1.36,4.37-1.24,6.71,.06,1.17-.78,1.93-1.52,2.69" fill="none" stroke="#000" stroke-linecap="round" stroke-linejoin="round"/><path d="M291.98,254.72c-2.08-1.36-1.47-3.69-1.88-5.59-1.79-8.24-5.39-15.62-10.45-22.29-7.99-10.54-18.2-18.37-29.76-24.69-8.08-4.42-16.5-7.88-25.22-10.73-5.01-1.64-10.09-3.07-15.22-4.13-5.96-1.23-11.97-2.28-18.06-2.84-2.76-.25-5.49-.76-8.28-.72-.97,.02-1.96-.16-2.67-.79-1.16-1.03-2.49-.95-3.87-.94-5.45,.02-10.9,0-16.35,.02-.71,0-1.36-.15-2,.7-.54,.71-1.78,1.04-2.8,1-4.61-.19-9.1,.84-13.65,1.24-3.62,.32-7.2,1.16-10.77,1.87-7.76,1.54-15.44,3.53-22.86,6.22-6.68,2.42-13.18,5.34-19.48,8.73-9.77,5.26-18.6,11.71-26.12,19.87-6.88,7.47-11.95,16.08-14.37,25.97-1.65,6.75-1.78,13.66-.3,20.57,2.09,9.78,6.69,18.2,13.1,25.78,7.36,8.71,16.31,15.38,26.17,20.96,7.73,4.38,15.89,7.83,24.26,10.69,7.44,2.54,15.13,4.42,22.88,5.75,6.85,1.18,13.75,2.31,20.76,2.43,1.39,.02,2.87,.21,3.65,1.7" fill="none" stroke="#000" stroke-linecap="round" stroke-linejoin="round"/><path d="M538.17,254.72c2.03-1.3,1.5-3.56,1.87-5.4,1.67-8.25,5.29-15.61,10.27-22.28,7.84-10.51,18.03-18.27,29.38-24.67,8.75-4.93,18.04-8.58,27.55-11.61,6.27-2,12.76-3.31,19.22-4.65,3.91-.81,7.94-1.05,11.91-1.6,3-.42,6-.83,9.04-.78,.81,.01,1.69-.2,2.29-.76,1.14-1.06,2.49-.95,3.86-.95,5.45,.02,10.9,0,16.35,.02,.71,0,1.36-.15,2,.7,.54,.71,1.78,1.04,2.8,1,4.61-.19,9.1,.84,13.65,1.24,3.62,.32,7.2,1.16,10.77,1.87,7.76,1.54,15.44,3.53,22.86,6.22,6.68,2.42,13.18,5.34,19.48,8.73,9.77,5.26,18.6,11.71,26.12,19.87,6.88,7.47,11.95,16.08,14.37,25.97,1.65,6.75,1.78,13.66,.3,20.57-2.09,9.78-6.69,18.2-13.1,25.78-7.36,8.71-16.31,15.38-26.17,20.96-7.73,4.38-15.89,7.83-24.26,10.69-7.44,2.54-15.13,4.42-22.88,5.75-6.85,1.18-13.75,2.31-20.76,2.43-1.39,.02-2.87,.21-3.65,1.7" fill="none" stroke="#000" stroke-linecap="round" stroke-linejoin="round"/><path d="M650.88,182.02c-.99-1.23-2.3-1.7-3.85-1.74-6.15-.15-12.21-1.17-18.27-2.11-5.77-.89-11.45-2.27-17.11-3.7-4.1-1.04-8.17-2.31-12.11-3.85-6.57-2.57-13.05-5.37-19.27-8.77-12.32-6.75-23.08-15.32-31.29-26.79-3.54-4.95-6.23-10.44-7.88-16.33-.62-2.19-1.41-4.38-1.4-6.72,0-1.16-.67-1.99-1.53-2.69" fill="none" stroke="#000" stroke-linecap="round" stroke-linejoin="round"/><path d="M291.98,262.8c-2.08,1.36-1.47,3.69-1.88,5.59-1.79,8.24-5.39,15.62-10.45,22.29-7.99,10.54-18.2,18.37-29.76,24.69-8.08,4.42-16.5,7.88-25.22,10.73-5.01,1.64-10.09,3.07-15.22,4.13-5.96,1.23-11.97,2.28-18.06,2.84-2.76,.25-5.49,.72-8.28,.73-1.49,0-2.88,.44-3.85,1.71" fill="none" stroke="#000" stroke-linecap="round" stroke-linejoin="round"/><path d="M538.17,262.8c2.03,1.3,1.5,3.56,1.87,5.4,1.67,8.25,5.29,15.61,10.27,22.28,7.84,10.51,18.03,18.27,29.38,24.67,8.75,4.93,18.04,8.58,27.55,11.61,6.27,2,12.76,3.31,19.22,4.65,3.91,.81,7.94,1.05,11.91,1.6,3,.42,6,.78,9.04,.8,1.32,0,2.6,.52,3.46,1.69" fill="none" stroke="#000" stroke-linecap="round" stroke-linejoin="round"/><path d="M537.79,262.8c-2.03,1.3-1.5,3.56-1.87,5.4-1.67,8.25-5.29,15.61-10.27,22.28-7.84,10.51-18.03,18.27-29.38,24.67-8.75,4.93-18.04,8.58-27.55,11.61-6.27,2-12.76,3.31-19.22,4.65-3.91,.81-7.94,1.05-11.91,1.6-3,.42-6,.76-9.04,.81-1.21,.02-2.63,.25-3.27,1.67" fill="none" stroke="#000" stroke-linecap="round" stroke-linejoin="round"/><path d="M292.36,262.8c2.03,1.3,1.5,3.56,1.87,5.4,1.67,8.25,5.29,15.61,10.27,22.28,7.84,10.51,18.03,18.27,29.38,24.67,8.75,4.93,18.04,8.58,27.55,11.61,6.27,2,12.76,3.31,19.22,4.65,3.91,.81,7.94,1.05,11.91,1.6,3,.42,6,.76,9.04,.81,1.21,.02,2.63,.25,3.27,1.67" fill="none" stroke="#000" stroke-linecap="round" stroke-linejoin="round"/><path d="M537.79,109.32c-1.98,1.24-1.52,3.43-1.87,5.2-1.04,5.3-2.89,10.31-5.49,14.97-6.14,11.02-14.92,19.57-25.32,26.61-4.95,3.35-10.06,6.41-15.43,8.96-7.62,3.62-15.49,6.64-23.64,8.88-6.08,1.67-12.21,3.1-18.45,4.13-5.06,.83-10.13,1.44-15.2,2.07-1.23,.15-2.44,.06-3.66,.16-1.38,.11-2.7,.38-3.46,1.73" fill="none" stroke="#000" stroke-linecap="round" stroke-linejoin="round"/><path d="M292.36,109.32c1.98,1.24,1.52,3.43,1.87,5.2,1.04,5.3,2.89,10.31,5.49,14.97,6.14,11.02,14.92,19.57,25.32,26.61,4.95,3.35,10.06,6.41,15.43,8.96,7.62,3.62,15.49,6.64,23.64,8.88,6.08,1.67,12.21,3.1,18.45,4.13,5.06,.83,10.13,1.44,15.2,2.07,1.23,.15,2.44,.06,3.66,.16,1.38,.11,2.7,.38,3.46,1.73" fill="none" stroke="#000" stroke-linecap="round" stroke-linejoin="round"/><path d="M537.79,254.72c-2.03-1.3-1.5-3.56-1.87-5.4-1.67-8.25-5.29-15.61-10.27-22.28-7.84-10.51-18.03-18.27-29.38-24.67-8.75-4.93-18.04-8.58-27.55-11.61-6.27-2-12.76-3.31-19.22-4.65-3.91-.81-7.94-1.05-11.91-1.6-3-.42-6-.81-9.04-.8-.83,0-1.95-.22-2.44-.78-.94-1.08-2.02-.9-3.14-.91-5.51,0-11.03-.01-16.54,0-.71,0-1.34-.12-2,.69-.61,.75-1.88,.99-3,1.03-6.35,.19-12.6,1.22-18.86,2.26-6.72,1.12-13.27,2.74-19.82,4.59-9.44,2.66-18.45,6.28-27.1,10.85-10.7,5.66-20.34,12.72-28.25,21.94-4.54,5.29-8.27,11.16-10.74,17.7-1.33,3.51-2.59,7.11-2.74,10.94-.05,1.18-.79,1.93-1.54,2.69" fill="none" stroke="#000" stroke-linecap="round" stroke-linejoin="round"/><path d="M292.36,408.21c1.98-1.24,1.51-3.43,1.87-5.2,1.71-8.4,5.33-15.91,10.46-22.67,8.04-10.6,18.37-18.5,29.97-24.84,8.53-4.66,17.49-8.24,26.74-11.14,6.44-2.01,12.99-3.63,19.63-4.74,6.86-1.15,13.75-2.38,20.76-2.37,.88,0,1.82-.34,2.24-.83,.94-1.08,2.02-.9,3.14-.9,5.51,0,11.03-.01,16.54,0,.71,0,1.35-.12,2.01,.68,.48,.58,1.57,1.04,2.6,1.04,7.01,0,13.9,1.23,20.76,2.39,4.73,.8,9.41,2.06,14.09,3.25,5.27,1.34,10.48,2.9,15.51,4.84,7.46,2.87,14.76,6.23,21.58,10.48,8.81,5.5,16.86,11.9,23.48,19.99,5.04,6.16,8.84,12.98,11.1,20.6,.65,2.18,1.43,4.37,1.4,6.72-.02,1.18,.78,1.93,1.53,2.69" fill="none" stroke="#000" stroke-linecap="round" stroke-linejoin="round"/><path d="M291.98,109.32c-.8,.66-1.43,1.44-1.53,2.5-.46,4.66-2,8.99-3.82,13.29-4.43,10.43-11.71,18.63-20.27,25.71-9.1,7.52-19.37,13.16-30.33,17.59-5.62,2.27-11.32,4.26-17.14,5.89-6.19,1.74-12.48,3.11-18.84,4.07-5.81,.87-11.6,1.85-17.5,1.95-1.3,.02-2.44,.63-3.27,1.71" fill="none" stroke="#000" stroke-linecap="round" stroke-linejoin="round"/></g></g></svg>