<?xml version="1.0" encoding="UTF-8"?>
<svg id="Layer_1" data-name="Layer 1" xmlns="http://www.w3.org/2000/svg" viewBox="0 0 819.49 511.58">
  <g id="XMN1UT">
    <g>
      <path d="M272.94,80.29c-2.26-1.44-1.67-3.95-2.08-6-2.01-9.91-6.52-18.61-12.69-26.48-9.76-12.45-22.43-21.24-36.32-28.44-7.69-3.98-15.78-7.03-23.96-9.76-4.54-1.52-9.2-2.92-13.89-3.83-8.34-1.61-16.7-3.19-25.2-4.04-9.19-.92-18.37-1.26-27.59-1.18-5.36,.05-10.69,.63-16.04,1.02-4.45,.33-8.87,.89-13.24,1.62-5.31,.89-10.6,1.96-15.84,3.29-7.25,1.85-14.39,3.99-21.36,6.67-9.45,3.63-18.46,8.11-26.95,13.65-8.35,5.44-15.84,11.83-22.19,19.5-6.27,7.57-11.03,15.92-13.32,25.62-1.85,7.85-2.11,15.56-.49,23.55,2.39,11.75,8.12,21.49,15.89,30.36,7.92,9.03,17.5,15.85,27.81,21.79,5.9,3.4,12.1,6.2,18.41,8.71,7.23,2.87,14.72,5.03,22.22,7.07,3.87,1.05,7.8,1.89,11.75,2.56,4.39,.74,8.83,1.14,13.24,1.76,3.41,.48,6.81,.87,10.26,.89,1.32,0,2.72,.44,3.42,1.87" fill="none" stroke="#000" stroke-linecap="round" stroke-linejoin="round"/>
      <path d="M694.69,170.5c.85-1.51,2.31-1.86,3.85-1.91,6.99-.26,13.85-1.44,20.75-2.49,9.25-1.41,18.25-3.71,27.12-6.55,8.1-2.59,15.98-5.79,23.54-9.77,7.88-4.14,15.38-8.84,22.22-14.56,9.67-8.09,17.6-17.52,22.43-29.29,3.57-8.71,5.06-17.69,3.91-27.15-1.39-11.52-6.09-21.5-13.09-30.57-7.85-10.18-17.71-18.05-28.68-24.53-8.04-4.75-16.53-8.57-25.38-11.68-4.96-1.75-9.95-3.4-15.02-4.75-4.35-1.16-8.75-2.17-13.22-2.94-4.41-.76-8.82-1.51-13.26-2.08-5.12-.65-10.25-1.09-15.4-1.46-5.55-.4-11.11-.22-16.67-.21-5.36,.01-10.69,.62-16.03,1.04-6.69,.53-13.27,1.74-19.87,2.85-4.18,.71-8.3,1.83-12.4,2.96-7.26,2-14.42,4.32-21.39,7.22-5.49,2.28-10.84,4.83-16.01,7.73-9.35,5.25-17.98,11.5-25.43,19.24-6.59,6.85-11.92,14.61-15.36,23.51-1.5,3.89-2.85,7.91-3.04,12.16-.06,1.31-.88,2.14-1.71,2.99" fill="none" stroke="#000" stroke-linecap="round" stroke-linejoin="round"/>
      <path d="M546.56,421.88c.89-.73,1.59-1.6,1.7-2.78,.51-5.18,2.21-9.99,4.24-14.76,4.93-11.59,13-20.71,22.53-28.58,10.12-8.36,21.54-14.6,33.71-19.56,6.32-2.57,12.75-4.89,19.29-6.67,7.77-2.11,15.66-3.86,23.69-4.84,5.48-.67,10.91-1.71,16.46-1.72,.71,0,1.62-.19,2.1-.65,1.52-1.47,3.34-1.25,5.17-1.25,5.84,0,11.69,0,17.53,.01,.79,0,1.48-.09,2.23,.76,.68,.76,2.03,1.15,3.32,1.18,6.99,.18,13.85,1.4,20.75,2.45,9.25,1.41,18.25,3.71,27.12,6.55,8.1,2.59,15.98,5.79,23.54,9.77,7.88,4.14,15.38,8.84,22.22,14.56,9.67,8.09,17.6,17.52,22.43,29.29,3.57,8.71,5.06,17.69,3.91,27.15-1.4,11.52-6.09,21.5-13.09,30.57-7.85,10.18-17.71,18.05-28.68,24.53-8.04,4.75-16.53,8.57-25.38,11.68-4.96,1.75-9.95,3.4-15.02,4.75-4.35,1.16-8.75,2.17-13.22,2.94-4.41,.76-8.82,1.51-13.27,2.08-5.12,.65-10.25,1.09-15.4,1.46-5.69,.4-11.4,.23-17.1,.21-5.22-.02-10.41-.62-15.61-1.03-6.69-.53-13.28-1.72-19.87-2.86-4.4-.76-8.72-2.01-13.05-3.16-7.06-1.89-13.98-4.22-20.75-7.02-5.49-2.27-10.84-4.83-16.02-7.73-9.26-5.2-17.79-11.4-25.21-19.03-5.92-6.09-10.84-12.95-14.3-20.73-2.15-4.82-3.92-9.81-4.3-15.16-.09-1.3-.89-2.14-1.72-2.99" fill="none" stroke="#000" stroke-linecap="round" stroke-linejoin="round"/>
      <path d="M272.94,421.88c-.89-.73-1.59-1.6-1.7-2.78-.51-5.18-2.21-9.99-4.24-14.76-4.93-11.59-13-20.71-22.53-28.58-10.12-8.36-21.53-14.63-33.71-19.55-6.25-2.52-12.59-4.73-19.05-6.55-6.88-1.94-13.86-3.46-20.94-4.52-6.46-.97-12.9-2.09-19.45-2.13-.9,0-1.72-.37-2.32-.89-1.23-1.07-2.62-1.05-4.09-1.05-6.13,.03-12.26,0-18.38,.02-.79,0-1.48-.09-2.23,.76-.68,.76-2.03,1.15-3.32,1.18-6.99,.18-13.85,1.4-20.75,2.45-9.25,1.41-18.25,3.71-27.12,6.55-8.1,2.59-15.98,5.79-23.54,9.77-7.88,4.14-15.38,8.84-22.22,14.56-9.67,8.09-17.6,17.52-22.43,29.29-3.57,8.71-5.06,17.69-3.91,27.15,1.4,11.52,6.09,21.5,13.09,30.57,7.85,10.18,17.71,18.05,28.68,24.53,8.04,4.75,16.53,8.57,25.38,11.68,4.96,1.75,9.95,3.4,15.02,4.75,4.35,1.16,8.75,2.17,13.22,2.94,4.41,.76,8.82,1.51,13.27,2.08,5.12,.65,10.25,1.09,15.4,1.46,5.69,.4,11.4,.23,17.1,.21,5.22-.02,10.41-.62,15.61-1.03,6.69-.53,13.28-1.72,19.87-2.86,4.4-.76,8.72-2.01,13.05-3.16,7.06-1.89,13.98-4.22,20.75-7.02,5.49-2.27,10.84-4.82,16.02-7.73,9.25-5.2,17.8-11.39,25.21-19.03,5.92-6.1,10.84-12.95,14.3-20.73,2.15-4.82,3.92-9.81,4.3-15.16,.09-1.3,.89-2.14,1.72-2.99" fill="none" stroke="#000" stroke-linecap="round" stroke-linejoin="round"/>
      <path d="M273.37,431.29c1.46,1.25,1.5,2.91,1.8,4.69,.79,4.72,2.2,9.33,4.21,13.68,4.42,9.58,10.79,17.77,18.6,24.78,9.84,8.83,21,15.7,33.12,20.95,8.31,3.6,16.8,6.66,25.63,8.85,5.75,1.42,11.49,2.79,17.33,3.8,14.08,2.42,28.27,3.35,42.54,2.95,4.78-.13,9.54-.76,14.32-1.01,4.32-.22,8.57-.95,12.81-1.6,5.1-.79,10.17-1.83,15.2-3.08,4.95-1.23,9.9-2.53,14.72-4.15,6.94-2.33,13.77-5.02,20.31-8.32,7.77-3.92,15.19-8.42,22.06-13.83,8.43-6.64,15.66-14.31,21.12-23.56,3.53-5.97,5.86-12.46,7.21-19.24,.36-1.79,.16-3.63,1.79-4.9" fill="none" stroke="#000" stroke-linecap="round" stroke-linejoin="round"/>
      <path d="M546.13,80.29c-1.46-1.25-1.5-2.91-1.8-4.69-.79-4.72-2.2-9.33-4.21-13.68-4.42-9.58-10.75-17.81-18.61-24.77-10.99-9.73-23.43-17.14-37.13-22.57-7.17-2.84-14.41-5.38-21.84-7.38-5.63-1.51-11.34-2.7-17.09-3.67-14.09-2.39-28.27-3.34-42.54-2.94-4.78,.13-9.54,.76-14.32,1.01-4.32,.22-8.56,.98-12.81,1.59-5.25,.76-10.45,1.92-15.61,3.17-5.06,1.23-10.04,2.73-14.99,4.4-7.17,2.41-14.18,5.21-20.91,8.63-7.98,4.05-15.52,8.81-22.47,14.49-11.78,9.64-20.77,21.28-25.35,35.95-.74,2.36-1.51,4.85-1.38,7.46,.07,1.3-.86,2.14-1.69,2.99" fill="none" stroke="#000" stroke-linecap="round" stroke-linejoin="round"/>
      <path d="M272.94,251.3c-2.31-1.52-1.63-4.1-2.09-6.21-1.99-9.16-5.99-17.36-11.61-24.77-8.88-11.72-20.23-20.42-33.08-27.44-8.98-4.91-18.34-8.75-28.03-11.92-5.56-1.82-11.21-3.41-16.91-4.58-6.62-1.36-13.3-2.54-20.07-3.15-3.06-.28-6.1-.85-9.2-.8-1.07,.02-2.18-.18-2.97-.88-1.29-1.15-2.77-1.05-4.3-1.05-6.06,.02-12.11,0-18.17,.02-.79,0-1.51-.16-2.23,.78-.6,.79-1.98,1.16-3.12,1.11-5.12-.21-10.12,.93-15.17,1.38-4.02,.36-8,1.29-11.97,2.08-8.63,1.71-17.15,3.92-25.41,6.91-7.43,2.69-14.65,5.94-21.65,9.7-10.86,5.85-20.67,13.01-29.02,22.09-7.64,8.3-13.28,17.87-15.97,28.86-1.83,7.5-1.98,15.18-.33,22.86,2.32,10.87,7.44,20.23,14.55,28.65,8.18,9.68,18.13,17.1,29.08,23.3,8.6,4.87,17.66,8.7,26.97,11.88,8.27,2.82,16.82,4.91,25.43,6.39,7.62,1.31,15.29,2.57,23.07,2.7,1.55,.03,3.19,.23,4.06,1.89" fill="none" stroke="#000" stroke-linecap="round" stroke-linejoin="round"/>
      <path d="M546.56,251.3c2.26-1.44,1.67-3.95,2.08-6,1.86-9.17,5.88-17.35,11.42-24.76,8.72-11.68,20.03-20.31,32.66-27.42,9.73-5.48,20.05-9.54,30.62-12.91,6.96-2.22,14.19-3.68,21.36-5.17,4.35-.9,8.83-1.16,13.24-1.78,3.34-.47,6.66-.93,10.05-.87,.89,.02,1.87-.22,2.55-.85,1.27-1.18,2.77-1.06,4.29-1.06,6.06,.02,12.11,0,18.17,.02,.79,0,1.51-.16,2.23,.78,.6,.79,1.98,1.16,3.12,1.11,5.12-.21,10.12,.93,15.17,1.38,4.02,.36,8,1.29,11.97,2.08,8.63,1.71,17.15,3.92,25.41,6.91,7.43,2.69,14.65,5.94,21.65,9.7,10.86,5.85,20.67,13.01,29.02,22.09,7.64,8.3,13.28,17.87,15.97,28.86,1.83,7.5,1.98,15.18,.33,22.86-2.32,10.87-7.44,20.23-14.55,28.65-8.18,9.68-18.13,17.1-29.08,23.3-8.6,4.87-17.66,8.7-26.97,11.88-8.27,2.82-16.82,4.91-25.43,6.39-7.62,1.31-15.29,2.57-23.07,2.7-1.55,.03-3.19,.23-4.06,1.89" fill="none" stroke="#000" stroke-linecap="round" stroke-linejoin="round"/>
      <path d="M671.82,170.5c-1.1-1.37-2.55-1.89-4.28-1.93-6.84-.17-13.57-1.31-20.31-2.35-6.42-.99-12.73-2.52-19.01-4.11-4.56-1.15-9.08-2.56-13.46-4.27-7.31-2.85-14.51-5.96-21.41-9.75-13.69-7.5-25.65-17.02-34.78-29.78-3.93-5.5-6.92-11.6-8.76-18.15-.68-2.43-1.57-4.86-1.56-7.47,0-1.29-.74-2.22-1.7-2.99" fill="none" stroke="#000" stroke-linecap="round" stroke-linejoin="round"/>
      <path d="M272.94,260.28c-2.31,1.52-1.63,4.1-2.09,6.21-1.99,9.16-5.99,17.36-11.61,24.77-8.88,11.72-20.23,20.42-33.08,27.44-8.98,4.91-18.34,8.75-28.03,11.92-5.56,1.82-11.21,3.41-16.91,4.58-6.62,1.36-13.3,2.54-20.07,3.15-3.06,.28-6.1,.8-9.2,.81-1.66,0-3.2,.49-4.28,1.9" fill="none" stroke="#000" stroke-linecap="round" stroke-linejoin="round"/>
      <path d="M546.56,260.28c2.26,1.44,1.67,3.95,2.08,6,1.86,9.17,5.88,17.35,11.42,24.76,8.72,11.68,20.03,20.31,32.66,27.42,9.73,5.48,20.05,9.54,30.62,12.91,6.96,2.22,14.19,3.68,21.36,5.17,4.35,.9,8.83,1.16,13.24,1.78,3.34,.47,6.67,.87,10.05,.89,1.47,0,2.89,.58,3.85,1.88" fill="none" stroke="#000" stroke-linecap="round" stroke-linejoin="round"/>
      <path d="M546.13,260.28c-2.26,1.44-1.67,3.95-2.08,6-1.86,9.17-5.88,17.35-11.42,24.76-8.72,11.68-20.03,20.31-32.66,27.42-9.73,5.48-20.05,9.54-30.62,12.91-6.96,2.22-14.19,3.68-21.36,5.17-4.35,.9-8.83,1.16-13.24,1.78-3.34,.47-6.67,.84-10.05,.91-1.34,.03-2.92,.28-3.64,1.86" fill="none" stroke="#000" stroke-linecap="round" stroke-linejoin="round"/>
      <path d="M273.37,260.28c2.26,1.44,1.67,3.95,2.08,6,1.86,9.17,5.88,17.35,11.42,24.76,8.72,11.68,20.03,20.31,32.66,27.42,9.73,5.48,20.05,9.54,30.62,12.91,6.96,2.22,14.19,3.68,21.36,5.17,4.35,.9,8.83,1.16,13.24,1.78,3.34,.47,6.67,.84,10.05,.91,1.34,.03,2.92,.28,3.64,1.86" fill="none" stroke="#000" stroke-linecap="round" stroke-linejoin="round"/>
      <path d="M546.13,89.69c-2.2,1.37-1.69,3.81-2.07,5.78-1.16,5.89-3.21,11.45-6.1,16.63-6.82,12.24-16.58,21.75-28.14,29.57-5.5,3.73-11.18,7.12-17.15,9.96-8.47,4.03-17.22,7.38-26.27,9.87-6.76,1.85-13.56,3.45-20.5,4.59-5.62,.92-11.26,1.6-16.9,2.3-1.37,.17-2.71,.06-4.07,.17-1.54,.13-3,.42-3.85,1.92" fill="none" stroke="#000" stroke-linecap="round" stroke-linejoin="round"/>
      <path d="M273.37,89.69c2.2,1.37,1.69,3.81,2.07,5.78,1.16,5.89,3.21,11.45,6.1,16.63,6.82,12.24,16.58,21.75,28.14,29.57,5.5,3.73,11.18,7.12,17.15,9.96,8.47,4.03,17.22,7.38,26.27,9.87,6.76,1.85,13.56,3.45,20.5,4.59,5.62,.92,11.26,1.6,16.9,2.3,1.37,.17,2.71,.06,4.07,.17,1.54,.13,3,.42,3.85,1.92" fill="none" stroke="#000" stroke-linecap="round" stroke-linejoin="round"/>
      <path d="M546.13,251.3c-2.26-1.44-1.67-3.95-2.08-6-1.86-9.17-5.88-17.35-11.42-24.76-8.72-11.68-20.03-20.31-32.66-27.42-9.73-5.48-20.05-9.54-30.62-12.91-6.96-2.22-14.19-3.68-21.36-5.17-4.35-.9-8.83-1.16-13.24-1.78-3.34-.47-6.66-.9-10.05-.89-.93,0-2.17-.25-2.71-.87-1.05-1.2-2.25-1-3.49-1.01-6.13,0-12.26-.01-18.38,0-.79,0-1.49-.13-2.23,.77-.68,.83-2.09,1.1-3.33,1.14-7.06,.22-14,1.35-20.96,2.51-7.47,1.24-14.75,3.05-22.03,5.1-10.49,2.96-20.5,6.98-30.11,12.06-11.89,6.29-22.61,14.14-31.4,24.39-5.05,5.88-9.19,12.4-11.94,19.67-1.48,3.9-2.88,7.9-3.05,12.16-.05,1.31-.88,2.14-1.71,2.99" fill="none" stroke="#000" stroke-linecap="round" stroke-linejoin="round"/>
      <path d="M273.37,421.88c2.2-1.37,1.68-3.81,2.08-5.78,1.9-9.33,5.93-17.68,11.63-25.19,8.94-11.78,20.41-20.56,33.31-27.61,9.48-5.18,19.44-9.16,29.72-12.38,7.15-2.24,14.44-4.04,21.82-5.27,7.63-1.28,15.28-2.64,23.07-2.64,.97,0,2.02-.38,2.49-.93,1.04-1.2,2.25-1,3.49-1,6.13,0,12.26-.01,18.38,0,.79,0,1.5-.13,2.24,.76,.53,.64,1.75,1.16,2.89,1.16,7.79,0,15.44,1.37,23.07,2.65,5.26,.89,10.46,2.29,15.66,3.61,5.86,1.49,11.65,3.23,17.24,5.38,8.29,3.19,16.4,6.92,23.98,11.65,9.8,6.11,18.73,13.22,26.09,22.22,5.6,6.85,9.82,14.43,12.34,22.9,.72,2.42,1.59,4.86,1.55,7.47-.02,1.31,.87,2.14,1.7,2.99" fill="none" stroke="#000" stroke-linecap="round" stroke-linejoin="round"/>
      <path d="M272.94,89.69c-.89,.73-1.59,1.6-1.7,2.78-.51,5.18-2.22,9.99-4.24,14.76-4.92,11.59-13.01,20.71-22.53,28.58-10.12,8.36-21.53,14.63-33.71,19.55-6.25,2.52-12.59,4.73-19.05,6.55-6.88,1.94-13.86,3.46-20.94,4.52-6.46,.97-12.9,2.05-19.45,2.17-1.44,.03-2.72,.7-3.63,1.9" fill="none" stroke="#000" stroke-linecap="round" stroke-linejoin="round"/>
    </g>
  </g>
</svg>