<?xml version="1.0" encoding="UTF-8"?><svg id="a" xmlns="http://www.w3.org/2000/svg" width="787.07" height="491.35" viewBox="0 0 787.07 491.35"><g><path d="M786.11,75.69c1.1,9.08-.33,17.71-3.76,26.07-4.64,11.31-12.25,20.37-21.54,28.13-6.57,5.5-13.77,10.01-21.34,13.99-7.26,3.81-14.82,6.88-22.61,9.37-8.51,2.73-17.16,4.94-26.04,6.29-6.63,1.01-13.22,2.14-19.93,2.39-1.48,.05-2.88,.39-3.7,1.84h-1.05c-.2,0-.39,0-.59,0-5.82-.02-11.63,0-17.45-.02-.96-.01-1.92-.06-2.8,.23l-.07-.22c-1.06-1.32-2.46-1.82-4.11-1.86-6.57-.16-13.03-1.25-19.5-2.26-6.16-.95-12.23-2.41-18.26-3.94-4.38-1.11-8.72-2.46-12.93-4.11-7.01-2.74-13.93-5.73-20.56-9.36-13.15-7.21-24.64-16.35-33.4-28.6-3.78-5.28-6.65-11.14-8.42-17.43-.66-2.34-1.5-4.67-1.49-7.17,0-1.24-.72-2.13-1.64-2.88h-.41c-2.11,1.32-1.61,3.66-1.99,5.56-1.11,5.65-3.09,11-5.86,15.97-6.55,11.76-15.92,20.89-27.02,28.4-5.28,3.58-10.73,6.84-16.47,9.57-8.13,3.86-16.53,7.09-25.23,9.48-6.5,1.77-13.03,3.31-19.7,4.4-5.39,.88-10.81,1.53-16.22,2.21-1.32,.17-2.61,.06-3.91,.17-1.48,.12-2.88,.4-3.69,1.85l-.1,.24c-.74-.33-1.55-.24-2.37-.24-5.88-.01-11.77-.01-17.65,0-.55,0-1.04-.07-1.54,.21l-.11-.22c-.81-1.45-2.21-1.73-3.69-1.85-1.3-.11-2.59,0-3.91-.17-5.41-.68-10.83-1.33-16.22-2.21-6.67-1.09-13.2-2.63-19.7-4.4-8.7-2.39-17.1-5.62-25.23-9.48-5.74-2.73-11.19-5.99-16.47-9.57-11.1-7.51-20.47-16.64-27.02-28.4-2.77-4.97-4.75-10.32-5.86-15.97-.38-1.9,.12-4.24-1.99-5.56h-.41c-.86,.7-1.53,1.54-1.64,2.67-.49,4.98-2.13,9.6-4.08,14.18-4.73,11.14-12.49,19.89-21.63,27.45-9.72,8.03-20.68,14.05-32.38,18.77-6,2.42-12.09,4.54-18.3,6.29-6.6,1.86-13.31,3.32-20.11,4.34-6.2,.93-12.38,1.98-18.68,2.08-1.38,.03-2.61,.68-3.49,1.83l-.07,.23c-.89-.29-1.83-.25-2.8-.24-5.82,.02-11.64,0-17.45,.02-.55,0-1.07-.08-1.57,.21l-.07-.22c-.67-1.38-2.02-1.79-3.29-1.8-3.32-.02-6.58-.4-9.86-.86-4.23-.6-8.5-.98-12.72-1.69-3.79-.65-7.57-1.45-11.28-2.46-7.21-1.96-14.4-4.03-21.35-6.79-6.06-2.4-12-5.09-17.68-8.36-9.9-5.71-19.1-12.25-26.7-20.93-7.47-8.51-12.98-17.87-15.27-29.15-1.56-7.68-1.31-15.07,.47-22.62,2.19-9.32,6.77-17.34,12.79-24.6,6.1-7.37,13.3-13.5,21.31-18.73,8.17-5.32,16.82-9.62,25.89-13.11,6.7-2.57,13.56-4.63,20.52-6.41,5.03-1.28,10.11-2.31,15.21-3.16,4.2-.7,8.45-1.24,12.71-1.56,5.14-.38,10.25-.94,15.4-.98,8.85-.08,17.67,.26,26.5,1.13,8.16,.82,16.18,2.34,24.2,3.88,4.5,.87,8.97,2.23,13.33,3.68,7.86,2.62,15.63,5.55,23.02,9.38,13.34,6.91,25.51,15.36,34.88,27.31,5.93,7.56,10.26,15.91,12.19,25.43,.39,1.96-.18,4.38,2,5.76h.41c.8-.81,1.69-1.62,1.62-2.87-.12-2.5,.62-4.9,1.33-7.16,4.4-14.09,13.03-25.26,24.34-34.53,6.67-5.46,13.92-10.02,21.58-13.91,6.47-3.29,13.2-5.98,20.09-8.3,4.75-1.59,9.54-3.04,14.4-4.22,4.95-1.21,9.94-2.32,14.98-3.05,4.09-.59,8.17-1.32,12.31-1.53,4.59-.24,9.17-.84,13.76-.97,13.7-.39,27.32,.53,40.85,2.82,5.53,.94,11.01,2.08,16.42,3.53,7.13,1.92,14.09,4.35,20.97,7.09,13.16,5.21,25.1,12.32,35.66,21.67,7.54,6.68,13.63,14.59,17.87,23.79,1.93,4.18,3.29,8.6,4.05,13.14,.28,1.7,.33,3.3,1.72,4.5h.41c.8-.81,1.6-1.62,1.65-2.87,.18-4.09,1.48-7.95,2.92-11.69,3.3-8.55,8.42-16,14.75-22.58,7.16-7.43,15.45-13.43,24.42-18.48,4.97-2.79,10.11-5.23,15.38-7.43,6.69-2.78,13.57-5.01,20.55-6.93,3.93-1.09,7.89-2.17,11.9-2.85,6.34-1.07,12.66-2.23,19.09-2.74,5.13-.4,10.24-.98,15.4-.99,5.33,0,10.68-.18,16.01,.2,4.94,.35,9.87,.77,14.78,1.4,4.27,.55,8.5,1.27,12.74,2,4.29,.73,8.52,1.7,12.7,2.82,4.86,1.29,9.65,2.88,14.42,4.56,8.5,2.99,16.65,6.66,24.37,11.22,10.53,6.23,20,13.78,27.54,23.56,6.72,8.71,11.23,18.3,12.57,29.36Z" fill="#fff"/><path d="M782.35,389.6c3.43,8.36,4.86,16.98,3.76,26.07-1.34,11.06-5.85,20.64-12.57,29.35-7.54,9.78-17.01,17.34-27.54,23.57-7.72,4.56-15.87,8.23-24.37,11.22-4.77,1.68-9.56,3.26-14.42,4.56-4.18,1.12-8.41,2.09-12.7,2.82-4.24,.73-8.47,1.45-12.74,2-4.91,.62-9.84,1.05-14.78,1.4-5.47,.39-10.95,.22-16.42,.2-5.02-.03-10-.6-14.99-.99-6.43-.51-12.76-1.66-19.08-2.75-4.23-.73-8.38-1.93-12.53-3.04-6.79-1.81-13.43-4.05-19.93-6.74-5.27-2.18-10.41-4.63-15.38-7.42-8.89-4.99-17.09-10.95-24.21-18.28-5.69-5.85-10.41-12.44-13.74-19.91-2.06-4.63-3.77-9.42-4.13-14.56-.09-1.25-.86-2.06-1.66-2.87h-.41c-1.56,1.22-1.37,2.98-1.71,4.7-1.3,6.52-3.54,12.75-6.93,18.48-5.24,8.88-12.19,16.25-20.28,22.63-6.6,5.2-13.72,9.52-21.18,13.28-6.29,3.17-12.84,5.75-19.51,7.99-4.63,1.56-9.38,2.8-14.14,3.99-4.83,1.2-9.7,2.2-14.6,2.96-4.07,.63-8.16,1.33-12.3,1.54-4.59,.24-9.17,.84-13.76,.97-13.7,.39-27.33-.51-40.85-2.84-5.61-.96-11.12-2.27-16.64-3.64-8.48-2.1-16.64-5.04-24.61-8.5-11.64-5.05-22.35-11.65-31.81-20.12-7.5-6.73-13.62-14.6-17.86-23.8-1.93-4.18-3.29-8.61-4.05-13.14-.28-1.7-.33-3.31-1.72-4.5h-.41c-.8,.81-1.57,1.62-1.66,2.87-.36,5.14-2.07,9.93-4.13,14.56-3.33,7.47-8.05,14.06-13.73,19.91-7.12,7.33-15.33,13.28-24.22,18.28-4.97,2.79-10.11,5.24-15.38,7.42-6.5,2.69-13.14,4.93-19.93,6.74-4.15,1.11-8.3,2.31-12.53,3.04-6.32,1.09-12.65,2.24-19.08,2.75-4.99,.39-9.97,.96-14.99,.99-5.47,.02-10.95,.19-16.42-.2-4.94-.35-9.87-.78-14.78-1.4-4.27-.55-8.5-1.27-12.74-2-4.29-.73-8.52-1.7-12.7-2.82-4.86-1.3-9.65-2.88-14.42-4.56-8.5-2.99-16.65-6.66-24.37-11.22-10.54-6.23-20-13.79-27.54-23.57-6.72-8.71-11.23-18.29-12.57-29.35-1.1-9.09,.33-17.71,3.76-26.07,4.64-11.31,12.25-20.37,21.54-28.14,6.57-5.49,13.77-10,21.34-13.98,7.26-3.81,14.82-6.89,22.61-9.38,8.51-2.72,17.16-4.93,26.04-6.28,6.63-1.01,13.22-2.18,19.93-2.35,1.25-.04,2.54-.41,3.19-1.14,.23-.26,.45-.42,.67-.53,.48-.24,.96-.2,1.48-.2,5.88-.02,11.77,.01,17.65-.02,.39,0,.78,0,1.16,.02,.98,.05,1.92,.25,2.77,.99,.58,.5,1.37,.85,2.23,.86,6.3,.03,12.48,1.11,18.68,2.04,6.8,1.03,13.51,2.49,20.11,4.35,6.21,1.74,12.3,3.86,18.3,6.29,11.7,4.72,22.66,10.74,32.38,18.77,9.14,7.55,16.9,16.32,21.63,27.44,1.95,4.59,3.59,9.21,4.08,14.18,.11,1.14,.78,1.97,1.64,2.67h.41c2.11-1.32,1.61-3.65,1.99-5.55,1.83-8.96,5.7-16.98,11.17-24.19,8.59-11.31,19.61-19.75,31.99-26.52,9.1-4.97,18.67-8.8,28.55-11.89,6.87-2.15,13.87-3.87,20.95-5.06,7.33-1.22,14.68-2.54,22.16-2.53,.93,0,1.94-.37,2.39-.89,.32-.36,.65-.59,.99-.73,.74-.32,1.55-.23,2.37-.23,5.88-.01,11.77-.02,17.65,0,.18,0,.35-.01,.52-.01,.56,0,1.08,.08,1.63,.74,.51,.62,1.68,1.12,2.78,1.12,7.48-.01,14.83,1.31,22.16,2.54,5.05,.85,10.04,2.21,15.03,3.48,5.63,1.43,11.19,3.09,16.56,5.16,7.96,3.07,15.75,6.65,23.03,11.19,9.41,5.87,17.99,12.7,25.06,21.34,5.38,6.57,9.43,13.85,11.85,21.99,.69,2.32,1.52,4.67,1.49,7.17-.02,1.26,.83,2.06,1.63,2.87h.41c.86-.7,1.53-1.53,1.64-2.67,.49-4.97,2.13-9.59,4.08-14.18,4.73-11.12,12.49-19.89,21.63-27.44,9.72-8.03,20.69-14.03,32.37-18.78,6.08-2.48,12.25-4.7,18.53-6.41,7.46-2.03,15.04-3.71,22.76-4.65,5.26-.64,10.48-1.64,15.81-1.65,.68,0,1.56-.18,2.01-.62,.49-.48,1.02-.77,1.57-.94,1.08-.35,2.24-.26,3.4-.26,5.61,.01,11.22,0,16.83,.01,.53,.01,1.02-.04,1.51,.22,.21,.11,.42,.27,.64,.51,.65,.73,1.94,1.1,3.19,1.14,6.71,.17,13.3,1.34,19.93,2.35,8.88,1.35,17.53,3.56,26.04,6.28,7.79,2.49,15.35,5.57,22.61,9.38,7.57,3.98,14.77,8.49,21.34,13.98,9.29,7.77,16.9,16.83,21.54,28.14Z" fill="#fff"/><path d="M785.15,233.79c1.76,7.2,1.9,14.58,.33,21.95-2.24,10.44-7.14,19.43-13.98,27.52-7.86,9.29-17.41,16.42-27.93,22.37-8.26,4.68-16.96,8.36-25.9,11.41-7.94,2.71-16.15,4.72-24.42,6.14-7.31,1.26-14.68,2.47-22.15,2.59-1.49,.03-3.07,.23-3.91,1.82l-.13,.23c-.49-.26-.98-.21-1.51-.22-5.61-.02-11.22,0-16.83-.01-1.16,0-2.32-.09-3.4,.26l-.09-.26c-.92-1.25-2.29-1.8-3.7-1.8-3.25-.02-6.44-.4-9.65-.86-4.23-.59-8.54-.84-12.71-1.71-6.89-1.42-13.83-2.83-20.52-4.96-10.14-3.23-20.06-7.13-29.4-12.4-12.12-6.83-22.99-15.11-31.36-26.33-5.32-7.12-9.18-14.97-10.97-23.78-.39-1.96,.17-4.37-2-5.76h-.41c-2.17,1.39-1.6,3.8-2,5.76-1.78,8.81-5.64,16.66-10.96,23.78-8.37,11.22-19.24,19.5-31.36,26.33-9.34,5.27-19.26,9.17-29.41,12.4-6.68,2.13-13.62,3.54-20.51,4.96-4.18,.87-8.48,1.12-12.71,1.71-3.21,.46-6.41,.81-9.65,.87-1.29,.03-2.81,.27-3.49,1.79h-1.13c-.17,0-.34,.01-.52,.01-5.88-.02-11.77-.01-17.65,0-.82,0-1.63-.09-2.37,.23l-.1-.24c-.68-1.52-2.2-1.76-3.49-1.79-3.24-.06-6.44-.41-9.65-.87-4.23-.59-8.53-.84-12.71-1.71-6.89-1.42-13.83-2.83-20.51-4.96-10.15-3.23-20.07-7.13-29.41-12.4-12.12-6.83-22.99-15.11-31.36-26.33-5.32-7.12-9.18-14.97-10.96-23.78-.4-1.96,.17-4.37-2-5.76h-.41c-2.22,1.46-1.57,3.94-2.01,5.96-1.91,8.8-5.76,16.67-11.15,23.8-8.52,11.25-19.43,19.61-31.77,26.35-8.63,4.71-17.61,8.41-26.92,11.45-5.35,1.75-10.77,3.28-16.25,4.4-6.35,1.31-12.77,2.44-19.27,3.03-2.94,.27-5.86,.77-8.83,.78-1.59,.01-3.07,.47-4.11,1.83h-1.51c-.38,0-.77,0-1.16,0-5.88,.03-11.77,0-17.65,.02-.52,0-1-.04-1.48,.2l-.16-.21c-.84-1.59-2.42-1.79-3.91-1.82-7.47-.12-14.84-1.33-22.15-2.59-8.27-1.42-16.48-3.43-24.42-6.14-8.94-3.05-17.65-6.73-25.9-11.41-10.52-5.95-20.07-13.08-27.93-22.37-6.84-8.09-11.74-17.08-13.98-27.52-1.57-7.37-1.43-14.75,.33-21.95,2.57-10.55,7.99-19.74,15.33-27.71,8.02-8.72,17.44-15.6,27.87-21.22,6.72-3.61,13.66-6.73,20.79-9.31,7.93-2.87,16.12-4.99,24.41-6.64,3.81-.76,7.63-1.65,11.5-2,4.85-.43,9.65-1.52,14.57-1.32,1.09,.04,2.41-.3,2.99-1.07,.19-.25,.38-.41,.57-.53,.5-.29,1.02-.21,1.57-.21,5.81-.02,11.63,0,17.45-.02,.97-.01,1.91-.05,2.8,.24,.46,.15,.91,.38,1.33,.76,.75,.67,1.82,.87,2.85,.85,2.97-.05,5.89,.5,8.83,.77,6.5,.59,12.92,1.71,19.27,3.02,5.48,1.13,10.9,2.66,16.25,4.41,9.31,3.04,18.29,6.73,26.92,11.45,12.34,6.74,23.25,15.1,31.77,26.35,5.39,7.12,9.24,15,11.15,23.79,.44,2.03-.21,4.51,2.01,5.97h.41c.8-.82,1.59-1.62,1.64-2.88,.16-4.09,1.51-7.93,2.93-11.68,2.64-6.97,6.62-13.24,11.46-18.89,8.45-9.84,18.74-17.38,30.16-23.42,9.23-4.88,18.84-8.74,28.92-11.58,6.99-1.97,13.99-3.71,21.16-4.9,6.68-1.11,13.35-2.2,20.13-2.41,1.19-.03,2.55-.3,3.2-1.09,.2-.25,.4-.42,.6-.53,.5-.28,.99-.21,1.54-.21,5.88-.02,11.77-.02,17.65,0,.82,0,1.63-.09,2.37,.24,.34,.14,.67,.37,.98,.73,.52,.59,1.72,.83,2.61,.83,3.25,0,6.44,.4,9.65,.85,4.23,.6,8.53,.85,12.71,1.72,6.89,1.42,13.83,2.83,20.51,4.96,10.15,3.23,20.07,7.13,29.41,12.39,12.12,6.83,22.99,15.12,31.36,26.34,5.32,7.12,9.18,14.97,10.96,23.78,.4,1.96-.17,4.37,2,5.76h.41c2.17-1.39,1.61-3.8,2-5.76,1.79-8.81,5.65-16.66,10.97-23.78,8.37-11.22,19.24-19.51,31.36-26.34,9.34-5.26,19.26-9.16,29.4-12.39,6.69-2.13,13.63-3.54,20.52-4.96,4.17-.87,8.48-1.12,12.71-1.72,3.21-.45,6.4-.89,9.65-.83,.86,.01,1.8-.21,2.45-.82,.42-.39,.86-.63,1.32-.78,.88-.29,1.84-.24,2.8-.23,5.82,.02,11.63,0,17.45,.02,.2,0,.39,0,.59,0,.54,0,1.05,.09,1.55,.75,.58,.77,1.9,1.11,2.99,1.07,4.92-.2,9.72,.89,14.57,1.32,3.87,.35,7.69,1.24,11.5,2,8.29,1.65,16.48,3.77,24.41,6.64,7.13,2.58,14.07,5.7,20.79,9.31,10.43,5.62,19.85,12.5,27.87,21.22,7.34,7.97,12.76,17.16,15.33,27.71Z" fill="#fff"/><path d="M645.23,327.59l.09,.26c-.55,.17-1.08,.46-1.57,.94-.45,.44-1.33,.62-2.01,.62-5.33,0-10.55,1.01-15.81,1.65-7.72,.94-15.3,2.62-22.76,4.65-6.28,1.71-12.45,3.93-18.53,6.41-11.68,4.75-22.65,10.75-32.37,18.78-9.14,7.55-16.9,16.32-21.63,27.44-1.95,4.59-3.59,9.21-4.08,14.18-.11,1.14-.78,1.97-1.64,2.67h-.41c-.8-.81-1.65-1.61-1.63-2.87,.03-2.5-.8-4.85-1.49-7.17-2.42-8.14-6.47-15.42-11.85-21.99-7.07-8.64-15.65-15.47-25.06-21.34-7.28-4.54-15.07-8.12-23.03-11.19-5.37-2.07-10.93-3.73-16.56-5.16-4.99-1.27-9.98-2.63-15.03-3.48-7.33-1.23-14.68-2.55-22.16-2.54-1.1,0-2.27-.5-2.78-1.12-.55-.66-1.07-.74-1.63-.74h1.13c.68-1.52,2.2-1.76,3.49-1.79,3.24-.06,6.44-.41,9.65-.87,4.23-.59,8.53-.84,12.71-1.71,6.89-1.42,13.83-2.83,20.51-4.96,10.15-3.23,20.07-7.13,29.41-12.4,12.12-6.83,22.99-15.11,31.36-26.33,5.32-7.12,9.18-14.97,10.96-23.78,.4-1.96-.17-4.37,2-5.76h.41c2.17,1.39,1.61,3.8,2,5.76,1.79,8.81,5.65,16.66,10.97,23.78,8.37,11.22,19.24,19.5,31.36,26.33,9.34,5.27,19.26,9.17,29.4,12.4,6.69,2.13,13.63,3.54,20.52,4.96,4.17,.87,8.48,1.12,12.71,1.71,3.21,.46,6.4,.84,9.65,.86,1.41,0,2.78,.55,3.7,1.8Z" fill="#fff"/><path d="M645.23,163.77l.07,.22c-.46,.15-.9,.39-1.32,.78-.65,.61-1.59,.83-2.45,.82-3.25-.06-6.44,.38-9.65,.83-4.23,.6-8.54,.85-12.71,1.72-6.89,1.42-13.83,2.83-20.52,4.96-10.14,3.23-20.06,7.13-29.4,12.39-12.12,6.83-22.99,15.12-31.36,26.34-5.32,7.12-9.18,14.97-10.97,23.78-.39,1.96,.17,4.37-2,5.76h-.41c-2.17-1.39-1.6-3.8-2-5.76-1.78-8.81-5.64-16.66-10.96-23.78-8.37-11.22-19.24-19.51-31.36-26.34-9.34-5.26-19.26-9.16-29.41-12.39-6.68-2.13-13.62-3.54-20.51-4.96-4.18-.87-8.48-1.12-12.71-1.72-3.21-.45-6.4-.86-9.65-.85-.89,0-2.09-.24-2.61-.83-.31-.36-.64-.59-.98-.73l.1-.24c.81-1.45,2.21-1.73,3.69-1.85,1.3-.11,2.59,0,3.91-.17,5.41-.68,10.83-1.33,16.22-2.21,6.67-1.09,13.2-2.63,19.7-4.4,8.7-2.39,17.1-5.62,25.23-9.48,5.74-2.73,11.19-5.99,16.47-9.57,11.1-7.51,20.47-16.64,27.02-28.4,2.77-4.97,4.75-10.32,5.86-15.97,.38-1.9-.12-4.24,1.99-5.56h.41c.92,.75,1.64,1.64,1.64,2.88-.01,2.5,.83,4.83,1.49,7.17,1.77,6.29,4.64,12.15,8.42,17.43,8.76,12.25,20.25,21.39,33.4,28.6,6.63,3.63,13.55,6.62,20.56,9.36,4.21,1.65,8.55,3,12.93,4.11,6.03,1.53,12.1,2.99,18.26,3.94,6.47,1.01,12.93,2.1,19.5,2.26,1.65,.04,3.05,.54,4.11,1.86Z" fill="#fff"/><path d="M382.65,163.77l.11,.22c-.2,.11-.4,.28-.6,.53-.65,.79-2.01,1.06-3.2,1.09-6.78,.21-13.45,1.3-20.13,2.41-7.17,1.19-14.17,2.93-21.16,4.9-10.08,2.84-19.69,6.7-28.92,11.58-11.42,6.04-21.71,13.58-30.16,23.42-4.84,5.65-8.82,11.92-11.46,18.89-1.42,3.75-2.77,7.59-2.93,11.68-.05,1.26-.84,2.06-1.64,2.88h-.41c-2.22-1.46-1.57-3.94-2.01-5.97-1.91-8.79-5.76-16.67-11.15-23.79-8.52-11.25-19.43-19.61-31.77-26.35-8.63-4.72-17.61-8.41-26.92-11.45-5.35-1.75-10.77-3.28-16.25-4.41-6.35-1.31-12.77-2.43-19.27-3.02-2.94-.27-5.86-.82-8.83-.77-1.03,.02-2.1-.18-2.85-.85-.42-.38-.87-.61-1.33-.76l.07-.23c.88-1.15,2.11-1.8,3.49-1.83,6.3-.1,12.48-1.15,18.68-2.08,6.8-1.02,13.51-2.48,20.11-4.34,6.21-1.75,12.3-3.87,18.3-6.29,11.7-4.72,22.66-10.74,32.38-18.77,9.14-7.56,16.9-16.31,21.63-27.45,1.95-4.58,3.59-9.2,4.08-14.18,.11-1.13,.78-1.97,1.64-2.67h.41c2.11,1.32,1.61,3.66,1.99,5.56,1.11,5.65,3.09,11,5.86,15.97,6.55,11.76,15.92,20.89,27.02,28.4,5.28,3.58,10.73,6.84,16.47,9.57,8.13,3.86,16.53,7.09,25.23,9.48,6.5,1.77,13.03,3.31,19.7,4.4,5.39,.88,10.81,1.53,16.22,2.21,1.32,.17,2.61,.06,3.91,.17,1.48,.12,2.88,.4,3.69,1.85Z" fill="#fff"/><path d="M382.65,327.59l.1,.24c-.34,.14-.67,.37-.99,.73-.45,.52-1.46,.89-2.39,.89-7.48-.01-14.83,1.31-22.16,2.53-7.08,1.19-14.08,2.91-20.95,5.06-9.88,3.09-19.45,6.92-28.55,11.89-12.38,6.77-23.4,15.21-31.99,26.52-5.47,7.21-9.34,15.23-11.17,24.19-.38,1.9,.12,4.23-1.99,5.55h-.41c-.86-.7-1.53-1.53-1.64-2.67-.49-4.97-2.13-9.59-4.08-14.18-4.73-11.12-12.49-19.89-21.63-27.44-9.72-8.03-20.68-14.05-32.38-18.77-6-2.43-12.09-4.55-18.3-6.29-6.6-1.86-13.31-3.32-20.11-4.35-6.2-.93-12.38-2.01-18.68-2.04-.86-.01-1.65-.36-2.23-.86-.85-.74-1.79-.94-2.77-.99h1.51c1.04-1.37,2.52-1.83,4.11-1.84,2.97-.01,5.89-.51,8.83-.78,6.5-.59,12.92-1.72,19.27-3.03,5.48-1.12,10.9-2.65,16.25-4.4,9.31-3.04,18.29-6.74,26.92-11.45,12.34-6.74,23.25-15.1,31.77-26.35,5.39-7.13,9.24-15,11.15-23.8,.44-2.02-.21-4.5,2.01-5.96h.41c2.17,1.39,1.6,3.8,2,5.76,1.78,8.81,5.64,16.66,10.96,23.78,8.37,11.22,19.24,19.5,31.36,26.33,9.34,5.27,19.26,9.17,29.41,12.4,6.68,2.13,13.62,3.54,20.51,4.96,4.18,.87,8.48,1.12,12.71,1.71,3.21,.46,6.41,.81,9.65,.87,1.29,.03,2.81,.27,3.49,1.79Z" fill="#fff"/></g><g><path d="M262.15,77.13c-2.18-1.38-1.61-3.8-2-5.76-1.93-9.52-6.26-17.87-12.19-25.43-9.37-11.95-21.54-20.4-34.88-27.31-7.39-3.83-15.16-6.76-23.02-9.38-4.36-1.45-8.83-2.81-13.33-3.68-8.02-1.54-16.04-3.06-24.2-3.88-8.83-.87-17.65-1.21-26.5-1.13-5.15,.04-10.26,.6-15.4,.98-4.26,.32-8.51,.86-12.71,1.56-5.1,.85-10.18,1.88-15.21,3.16-6.96,1.78-13.82,3.84-20.52,6.41-9.07,3.49-17.72,7.79-25.89,13.11-8.01,5.23-15.21,11.36-21.31,18.73-6.02,7.26-10.6,15.28-12.79,24.6-1.78,7.55-2.03,14.94-.47,22.62,2.29,11.28,7.8,20.64,15.27,29.15,7.6,8.68,16.8,15.22,26.7,20.93,5.68,3.27,11.62,5.96,17.68,8.36,6.95,2.76,14.14,4.83,21.35,6.79,3.71,1.01,7.49,1.81,11.28,2.46,4.22,.71,8.49,1.09,12.72,1.69,3.28,.46,6.54,.84,9.86,.86,1.27,0,2.62,.42,3.29,1.8" fill="none" stroke="#000" stroke-linecap="round" stroke-linejoin="round"/><path d="M667.19,163.77c.82-1.45,2.22-1.79,3.7-1.84,6.71-.25,13.3-1.38,19.93-2.39,8.88-1.35,17.53-3.56,26.04-6.29,7.79-2.49,15.35-5.56,22.61-9.37,7.57-3.98,14.77-8.49,21.34-13.99,9.29-7.76,16.9-16.82,21.54-28.13,3.43-8.36,4.86-16.99,3.76-26.07-1.34-11.06-5.85-20.65-12.57-29.36-7.54-9.78-17.01-17.33-27.54-23.56-7.72-4.56-15.87-8.23-24.37-11.22-4.77-1.68-9.56-3.27-14.42-4.56-4.18-1.12-8.41-2.09-12.7-2.82-4.24-.73-8.47-1.45-12.74-2-4.91-.63-9.84-1.05-14.78-1.4-5.33-.38-10.68-.21-16.01-.2-5.16,.01-10.27,.59-15.4,.99-6.43,.51-12.75,1.67-19.09,2.74-4.01,.68-7.97,1.76-11.9,2.85-6.98,1.92-13.86,4.15-20.55,6.93-5.27,2.2-10.41,4.64-15.38,7.43-8.97,5.05-17.26,11.05-24.42,18.48-6.33,6.58-11.45,14.03-14.75,22.58-1.44,3.74-2.74,7.6-2.92,11.69-.05,1.25-.85,2.06-1.65,2.87" fill="none" stroke="#000" stroke-linecap="round" stroke-linejoin="round"/><path d="M524.92,405.19c.86-.7,1.53-1.53,1.64-2.67,.49-4.97,2.13-9.59,4.08-14.18,4.73-11.12,12.49-19.89,21.63-27.44,9.72-8.03,20.69-14.03,32.37-18.78,6.08-2.48,12.25-4.7,18.53-6.41,7.46-2.03,15.04-3.71,22.76-4.65,5.26-.64,10.48-1.64,15.81-1.65,.68,0,1.56-.18,2.01-.62,.49-.48,1.02-.77,1.57-.94,1.08-.35,2.24-.26,3.4-.26,5.61,.01,11.22,0,16.83,.01,.53,.01,1.02-.04,1.51,.22,.21,.11,.42,.27,.64,.51,.65,.73,1.94,1.1,3.19,1.14,6.71,.17,13.3,1.34,19.93,2.35,8.88,1.35,17.53,3.56,26.04,6.28,7.79,2.49,15.35,5.57,22.61,9.38,7.57,3.98,14.77,8.49,21.34,13.98,9.29,7.77,16.9,16.83,21.54,28.14,3.43,8.36,4.86,16.98,3.76,26.07-1.34,11.06-5.85,20.64-12.57,29.35-7.54,9.78-17.01,17.34-27.54,23.57-7.72,4.56-15.87,8.23-24.37,11.22-4.77,1.68-9.56,3.26-14.42,4.56-4.18,1.12-8.41,2.09-12.7,2.82-4.24,.73-8.47,1.45-12.74,2-4.91,.62-9.84,1.05-14.78,1.4-5.47,.39-10.95,.22-16.42,.2-5.02-.03-10-.6-14.99-.99-6.43-.51-12.76-1.66-19.08-2.75-4.23-.73-8.38-1.93-12.53-3.04-6.79-1.81-13.43-4.05-19.93-6.74-5.27-2.18-10.41-4.63-15.38-7.42-8.89-4.99-17.09-10.95-24.21-18.28-5.69-5.85-10.41-12.44-13.74-19.91-2.06-4.63-3.77-9.42-4.13-14.56-.09-1.25-.86-2.06-1.66-2.87" fill="none" stroke="#000" stroke-linecap="round" stroke-linejoin="round"/><path d="M262.15,405.19c-.86-.7-1.53-1.53-1.64-2.67-.49-4.97-2.13-9.59-4.08-14.18-4.73-11.12-12.49-19.89-21.63-27.44-9.72-8.03-20.68-14.05-32.38-18.77-6-2.43-12.09-4.55-18.3-6.29-6.6-1.86-13.31-3.32-20.11-4.35-6.2-.93-12.38-2.01-18.68-2.04-.86-.01-1.65-.36-2.23-.86-.85-.74-1.79-.94-2.77-.99-.38-.02-.77-.02-1.16-.02-5.88,.03-11.77,0-17.65,.02-.52,0-1-.04-1.48,.2-.22,.11-.44,.27-.67,.53-.65,.73-1.94,1.1-3.19,1.14-6.71,.17-13.3,1.34-19.93,2.35-8.88,1.35-17.53,3.56-26.04,6.28-7.79,2.49-15.35,5.57-22.61,9.38-7.57,3.98-14.77,8.49-21.34,13.98-9.29,7.77-16.9,16.83-21.54,28.14-3.43,8.36-4.86,16.98-3.76,26.07,1.34,11.06,5.85,20.64,12.57,29.35,7.54,9.78,17,17.34,27.54,23.57,7.72,4.56,15.87,8.23,24.37,11.22,4.77,1.68,9.56,3.26,14.42,4.56,4.18,1.12,8.41,2.09,12.7,2.82,4.24,.73,8.47,1.45,12.74,2,4.91,.62,9.84,1.05,14.78,1.4,5.47,.39,10.95,.22,16.42,.2,5.02-.03,10-.6,14.99-.99,6.43-.51,12.76-1.66,19.08-2.75,4.23-.73,8.38-1.93,12.53-3.04,6.79-1.81,13.43-4.05,19.93-6.74,5.27-2.18,10.41-4.63,15.38-7.42,8.89-5,17.1-10.95,24.22-18.28,5.68-5.85,10.4-12.44,13.73-19.91,2.06-4.63,3.77-9.42,4.13-14.56,.09-1.25,.86-2.06,1.66-2.87" fill="none" stroke="#000" stroke-linecap="round" stroke-linejoin="round"/><path d="M262.56,414.23c1.39,1.19,1.44,2.8,1.72,4.5,.76,4.53,2.12,8.96,4.05,13.14,4.24,9.2,10.36,17.07,17.86,23.8,9.46,8.47,20.17,15.07,31.81,20.12,7.97,3.46,16.13,6.4,24.61,8.5,5.52,1.37,11.03,2.68,16.64,3.64,13.52,2.33,27.15,3.23,40.85,2.84,4.59-.13,9.17-.73,13.76-.97,4.14-.21,8.23-.91,12.3-1.54,4.9-.76,9.77-1.76,14.6-2.96,4.76-1.19,9.51-2.43,14.14-3.99,6.67-2.24,13.22-4.82,19.51-7.99,7.46-3.76,14.58-8.08,21.18-13.28,8.09-6.38,15.04-13.75,20.28-22.63,3.39-5.73,5.63-11.96,6.93-18.48,.34-1.72,.15-3.48,1.71-4.7" fill="none" stroke="#000" stroke-linecap="round" stroke-linejoin="round"/><path d="M524.51,77.13c-1.39-1.2-1.44-2.8-1.72-4.5-.76-4.54-2.12-8.96-4.05-13.14-4.24-9.2-10.33-17.11-17.87-23.79-10.56-9.35-22.5-16.46-35.66-21.67-6.88-2.74-13.84-5.17-20.97-7.09-5.41-1.45-10.89-2.59-16.42-3.53-13.53-2.29-27.15-3.21-40.85-2.82-4.59,.13-9.17,.73-13.76,.97-4.14,.21-8.22,.94-12.31,1.53-5.04,.73-10.03,1.84-14.98,3.05-4.86,1.18-9.65,2.63-14.4,4.22-6.89,2.32-13.62,5.01-20.09,8.3-7.66,3.89-14.91,8.45-21.58,13.91-11.31,9.27-19.94,20.44-24.34,34.53-.71,2.26-1.45,4.66-1.33,7.16,.07,1.25-.82,2.06-1.62,2.87" fill="none" stroke="#000" stroke-linecap="round" stroke-linejoin="round"/><path d="M262.15,241.37c-2.22-1.46-1.57-3.94-2.01-5.97-1.91-8.79-5.76-16.67-11.15-23.79-8.52-11.25-19.43-19.61-31.77-26.35-8.63-4.72-17.61-8.41-26.92-11.45-5.35-1.75-10.77-3.28-16.25-4.41-6.35-1.31-12.77-2.43-19.27-3.02-2.94-.27-5.86-.82-8.83-.77-1.03,.02-2.1-.18-2.85-.85-.42-.38-.87-.61-1.33-.76-.89-.29-1.83-.25-2.8-.24-5.82,.02-11.64,0-17.45,.02-.55,0-1.07-.08-1.57,.21-.19,.12-.38,.28-.57,.53-.58,.77-1.9,1.11-2.99,1.07-4.92-.2-9.72,.89-14.57,1.32-3.87,.35-7.69,1.24-11.5,2-8.29,1.65-16.48,3.77-24.41,6.64-7.13,2.58-14.07,5.7-20.79,9.31-10.43,5.62-19.85,12.5-27.87,21.22-7.34,7.97-12.76,17.16-15.33,27.71-1.76,7.2-1.9,14.58-.33,21.95,2.24,10.44,7.14,19.43,13.98,27.52,7.86,9.29,17.41,16.42,27.93,22.37,8.25,4.68,16.96,8.36,25.9,11.41,7.94,2.71,16.15,4.72,24.42,6.14,7.31,1.26,14.68,2.47,22.15,2.59,1.49,.03,3.07,.23,3.91,1.82" fill="none" stroke="#000" stroke-linecap="round" stroke-linejoin="round"/><path d="M524.92,241.37c2.17-1.39,1.61-3.8,2-5.76,1.79-8.81,5.65-16.66,10.97-23.78,8.37-11.22,19.24-19.51,31.36-26.34,9.34-5.26,19.26-9.16,29.4-12.39,6.69-2.13,13.63-3.54,20.52-4.96,4.17-.87,8.48-1.12,12.71-1.72,3.21-.45,6.4-.89,9.65-.83,.86,.01,1.8-.21,2.45-.82,.42-.39,.86-.63,1.32-.78,.88-.29,1.84-.24,2.8-.23,5.82,.02,11.63,0,17.45,.02,.2,0,.39,0,.59,0,.54,0,1.05,.09,1.55,.75,.58,.77,1.9,1.11,2.99,1.07,4.92-.2,9.72,.89,14.57,1.32,3.87,.35,7.69,1.24,11.5,2,8.29,1.65,16.48,3.77,24.41,6.64,7.13,2.58,14.07,5.7,20.79,9.31,10.43,5.62,19.85,12.5,27.87,21.22,7.34,7.97,12.76,17.16,15.33,27.71,1.76,7.2,1.9,14.58,.33,21.95-2.24,10.44-7.14,19.43-13.98,27.52-7.86,9.29-17.41,16.42-27.93,22.37-8.26,4.68-16.96,8.36-25.9,11.41-7.94,2.71-16.15,4.72-24.42,6.14-7.31,1.26-14.68,2.47-22.15,2.59-1.49,.03-3.07,.23-3.91,1.82" fill="none" stroke="#000" stroke-linecap="round" stroke-linejoin="round"/><path d="M645.23,163.77c-1.06-1.32-2.46-1.82-4.11-1.86-6.57-.16-13.03-1.25-19.5-2.26-6.16-.95-12.23-2.41-18.26-3.94-4.38-1.11-8.72-2.46-12.93-4.11-7.01-2.74-13.93-5.73-20.56-9.36-13.15-7.21-24.64-16.35-33.4-28.6-3.78-5.28-6.65-11.14-8.42-17.43-.66-2.34-1.5-4.67-1.49-7.17,0-1.24-.72-2.13-1.64-2.88" fill="none" stroke="#000" stroke-linecap="round" stroke-linejoin="round"/><path d="M262.15,249.99c-2.22,1.46-1.57,3.94-2.01,5.96-1.91,8.8-5.76,16.67-11.15,23.8-8.52,11.25-19.43,19.61-31.77,26.35-8.63,4.71-17.61,8.41-26.92,11.45-5.35,1.75-10.77,3.28-16.25,4.4-6.35,1.31-12.77,2.44-19.27,3.03-2.94,.27-5.86,.77-8.83,.78-1.59,.01-3.07,.47-4.11,1.83" fill="none" stroke="#000" stroke-linecap="round" stroke-linejoin="round"/><path d="M524.92,249.99c2.17,1.39,1.61,3.8,2,5.76,1.79,8.81,5.65,16.66,10.97,23.78,8.37,11.22,19.24,19.5,31.36,26.33,9.34,5.27,19.26,9.17,29.4,12.4,6.69,2.13,13.63,3.54,20.52,4.96,4.17,.87,8.48,1.12,12.71,1.71,3.21,.46,6.4,.84,9.65,.86,1.41,0,2.78,.55,3.7,1.8" fill="none" stroke="#000" stroke-linecap="round" stroke-linejoin="round"/><path d="M524.51,249.99c-2.17,1.39-1.6,3.8-2,5.76-1.78,8.81-5.64,16.66-10.96,23.78-8.37,11.22-19.24,19.5-31.36,26.33-9.34,5.27-19.26,9.17-29.41,12.4-6.68,2.13-13.62,3.54-20.51,4.96-4.18,.87-8.48,1.12-12.71,1.71-3.21,.46-6.41,.81-9.65,.87-1.29,.03-2.81,.27-3.49,1.79" fill="none" stroke="#000" stroke-linecap="round" stroke-linejoin="round"/><path d="M262.56,249.99c2.17,1.39,1.6,3.8,2,5.76,1.78,8.81,5.64,16.66,10.96,23.78,8.37,11.22,19.24,19.5,31.36,26.33,9.34,5.27,19.26,9.17,29.41,12.4,6.68,2.13,13.62,3.54,20.51,4.96,4.18,.87,8.48,1.12,12.71,1.71,3.21,.46,6.41,.81,9.65,.87,1.29,.03,2.81,.27,3.49,1.79" fill="none" stroke="#000" stroke-linecap="round" stroke-linejoin="round"/><path d="M524.51,86.16c-2.11,1.32-1.61,3.66-1.99,5.56-1.11,5.65-3.09,11-5.86,15.97-6.55,11.76-15.92,20.89-27.02,28.4-5.28,3.58-10.73,6.84-16.47,9.57-8.13,3.86-16.53,7.09-25.23,9.48-6.5,1.77-13.03,3.31-19.7,4.4-5.39,.88-10.81,1.53-16.22,2.21-1.32,.17-2.61,.06-3.91,.17-1.48,.12-2.88,.4-3.69,1.85" fill="none" stroke="#000" stroke-linecap="round" stroke-linejoin="round"/><path d="M262.56,86.16c2.11,1.32,1.61,3.66,1.99,5.56,1.11,5.65,3.09,11,5.86,15.97,6.55,11.76,15.92,20.89,27.02,28.4,5.28,3.58,10.73,6.84,16.47,9.57,8.13,3.86,16.53,7.09,25.23,9.48,6.5,1.77,13.03,3.31,19.7,4.4,5.39,.88,10.81,1.53,16.22,2.21,1.32,.17,2.61,.06,3.91,.17,1.48,.12,2.88,.4,3.69,1.85" fill="none" stroke="#000" stroke-linecap="round" stroke-linejoin="round"/><path d="M524.51,241.37c-2.17-1.39-1.6-3.8-2-5.76-1.78-8.81-5.64-16.66-10.96-23.78-8.37-11.22-19.24-19.51-31.36-26.34-9.34-5.26-19.26-9.16-29.41-12.39-6.68-2.13-13.62-3.54-20.51-4.96-4.18-.87-8.48-1.12-12.71-1.72-3.21-.45-6.4-.86-9.65-.85-.89,0-2.09-.24-2.61-.83-.31-.36-.64-.59-.98-.73-.74-.33-1.55-.24-2.37-.24-5.88-.01-11.77-.01-17.65,0-.55,0-1.04-.07-1.54,.21-.2,.11-.4,.28-.6,.53-.65,.79-2.01,1.06-3.2,1.09-6.78,.21-13.45,1.3-20.13,2.41-7.17,1.19-14.17,2.93-21.16,4.9-10.08,2.84-19.69,6.7-28.92,11.58-11.42,6.04-21.71,13.58-30.16,23.42-4.84,5.65-8.82,11.92-11.46,18.89-1.42,3.75-2.77,7.59-2.93,11.68-.05,1.26-.84,2.06-1.64,2.88" fill="none" stroke="#000" stroke-linecap="round" stroke-linejoin="round"/><path d="M262.56,405.19c2.11-1.32,1.61-3.65,1.99-5.55,1.83-8.96,5.7-16.98,11.17-24.19,8.59-11.31,19.61-19.75,31.99-26.52,9.1-4.97,18.67-8.8,28.55-11.89,6.87-2.15,13.87-3.87,20.95-5.06,7.33-1.22,14.68-2.54,22.16-2.53,.93,0,1.94-.37,2.39-.89,.32-.36,.65-.59,.99-.73,.74-.32,1.55-.23,2.37-.23,5.88-.01,11.77-.02,17.65,0,.18,0,.35-.01,.52-.01,.56,0,1.08,.08,1.63,.74,.51,.62,1.68,1.12,2.78,1.12,7.48-.01,14.83,1.31,22.16,2.54,5.05,.85,10.04,2.21,15.03,3.48,5.63,1.43,11.19,3.09,16.56,5.16,7.96,3.07,15.75,6.65,23.03,11.19,9.41,5.87,17.99,12.7,25.06,21.34,5.38,6.57,9.43,13.85,11.85,21.99,.69,2.32,1.52,4.67,1.49,7.17-.02,1.26,.83,2.06,1.63,2.87" fill="none" stroke="#000" stroke-linecap="round" stroke-linejoin="round"/><path d="M262.15,86.16c-.86,.7-1.53,1.54-1.64,2.67-.49,4.98-2.13,9.6-4.08,14.18-4.73,11.14-12.49,19.89-21.63,27.45-9.72,8.03-20.68,14.05-32.38,18.77-6,2.42-12.09,4.54-18.3,6.29-6.6,1.86-13.31,3.32-20.11,4.34-6.2,.93-12.38,1.98-18.68,2.08-1.38,.03-2.61,.68-3.49,1.83" fill="none" stroke="#000" stroke-linecap="round" stroke-linejoin="round"/></g></svg>